<?xml version="1.0" standalone="no"?>
  <!DOCTYPE svg PUBLIC "-//W3C//DTD SVG 1.1//EN" "http://www.w3.org/Graphics/SVG/1.1/DTD/svg11.dtd" >
  <svg>
  <metadata>
  Created by font-carrier
  </metadata>
  <defs>
  <font id="Intro-Book" horiz-adv-x="1231" vert-adv-y="1231" >
    <font-face
      
      font-family="Intro Book"
      
      font-weight="400"
      
      font-stretch="normal"
      
      units-per-em="1000"
      
      ascent="750"
      
      descent="-250"
      
    />
      <missing-glyph />

      

      
      <glyph glyph-name="uni21" unicode="&#x21;" d="M127-12C155-12 177 6 177 33C177 61 155 79 127 79C100 79 79 61 79 33C79 6 100-12 127-12ZM90 147L166 147L171 700L84 700Z"  horiz-adv-x="255" vert-adv-y="1000"  />

      
      <glyph glyph-name="uni22" unicode="&#x22;" d="M75 700L75 477L140 477L150 700ZM218 700L218 477L282 477L292 700Z"  horiz-adv-x="362" vert-adv-y="1000"  />

      
      <glyph glyph-name="uni23" unicode="&#x23;" d="M46 200L162 200L131 0L205 0L234 200L430 200L400 0L474 0L502 200L613 200L613 257L511 257L535 421L644 421L644 478L543 478L576 699L505 699L472 478L275 478L307 699L237 699L204 478L77 478L77 421L195 421L171 257L46 257ZM265 423L465 423L441 255L240 255Z"  horiz-adv-x="690" vert-adv-y="1000"  />

      
      <glyph glyph-name="uni24" unicode="&#x24;" d="M289 710C174 699 60 637 60 509C60 378 170 342 289 326L289 65C213 73 132 110 127 191L46 191C51 62 171 1 289-9L289-78L357-78L357-9C473 1 599 65 599 195C599 340 483 369 357 388L357 633C424 625 494 590 499 516L578 516C573 638 465 696 357 709L357 778L289 778ZM515 195C515 112 433 73 357 65L357 318C441 304 515 283 515 195ZM143 510C143 589 220 627 289 635L289 397C220 408 143 427 143 510Z"  horiz-adv-x="643" vert-adv-y="1000"  />

      
      <glyph glyph-name="uni25" unicode="&#x25;" d="M207 0L286 0L628 698L550 698ZM801 152C801 373 470 374 470 152C470-68 801-68 801 152ZM534 152C534 297 736 297 736 152C736 7 534 7 534 152ZM367 545C367 768 36 767 36 545C36 323 367 323 367 545ZM101 545C101 690 303 690 303 545C303 400 101 400 101 545Z"  horiz-adv-x="838" vert-adv-y="1000"  />

      
      <glyph glyph-name="uni26" unicode="&#x26;" d="M525 556C530 664 439 715 318 715C202 715 99 658 99 536C99 469 134 417 198 397C109 368 54 305 54 206C54 81 153-14 308-14C459-14 541 66 541 226L541 356L613 356L613 423L467 423L467 227C467 106 404 56 308 56C213 56 137 117 137 208C137 308 207 349 297 357C310 358 323 358 335 358L335 423C238 423 177 456 177 536C177 617 252 645 317 645C382 645 452 623 452 556Z"  horiz-adv-x="651" vert-adv-y="1000"  />

      
      <glyph glyph-name="uni2019" unicode="&#x2019;" d="M163 653C163 660 164 663 161 670C156 690 137 703 114 703C86 703 65 685 65 657C65 634 80 619 100 612L79 541L129 541L157 629C160 638 162 646 163 653Z"  horiz-adv-x="224" vert-adv-y="1000"  />

      
      <glyph glyph-name="uni28" unicode="&#x28;" d="M250 769C-24 590-17-24 250-204L278-156C83 2 74 565 278 721Z"  horiz-adv-x="307" vert-adv-y="1000"  />

      
      <glyph glyph-name="uni29" unicode="&#x29;" d="M29 721C234 564 222 4 29-156L57-204C324-22 333 593 57 769Z"  horiz-adv-x="307" vert-adv-y="1000"  />

      
      <glyph glyph-name="uni2a" unicode="&#x2a;" d="M352 592L334 644L232 604L236 713L178 713L182 603L75 641L58 588L167 556L92 465L139 430L207 524L276 430L324 465L247 557Z"  horiz-adv-x="412" vert-adv-y="1000"  />

      
      <glyph glyph-name="uni2b" unicode="&#x2b;" d="M59 335L204 335L204 191L269 191L269 335L414 335L414 397L269 397L269 542L204 542L204 397L59 397Z"  horiz-adv-x="473" vert-adv-y="1000"  />

      
      <glyph glyph-name="uni2c" unicode="&#x2c;" d="M167 30C168 33 167 39 166 46C159 67 141 80 118 80C90 80 69 62 69 34C69 11 84-3 104-10L82-88L131-88L161 6C164 15 166 23 167 30Z"  horiz-adv-x="236" vert-adv-y="1000"  />

      
      <glyph glyph-name="uni2d" unicode="&#x2d;" d="M68 299L393 299L393 368L68 368Z"  horiz-adv-x="461" vert-adv-y="1000"  />

      
      <glyph glyph-name="uni2e" unicode="&#x2e;" d="M119-8C148-8 171 11 171 38C171 69 148 86 119 86C91 86 68 69 68 38C68 11 91-8 119-8Z"  horiz-adv-x="239" vert-adv-y="1000"  />

      
      <glyph glyph-name="uni2f" unicode="&#x2f;" d="M31 1L113 1L451 700L369 700Z"  horiz-adv-x="481" vert-adv-y="1000"  />

      
      <glyph glyph-name="uni30" unicode="&#x30;" d="M330 710C185 710 71 619 71 469L71 229C71 78 185-11 330-11C473-11 587 78 587 229L587 469C587 619 473 710 330 710ZM330 61C247 61 183 102 161 174C155 195 150 220 150 249L150 449C150 478 155 503 161 524C183 596 247 638 330 638C410 638 476 596 498 524C504 503 509 478 509 449L509 249C509 220 504 195 498 174C476 102 410 61 330 61Z"  horiz-adv-x="658" vert-adv-y="1000"  />

      
      <glyph glyph-name="uni31" unicode="&#x31;" d="M185 634L185 66L47 66L47 0L403 0L403 66L264 66L264 700L63 700L63 634Z"  horiz-adv-x="432" vert-adv-y="1000"  />

      
      <glyph glyph-name="uni32" unicode="&#x32;" d="M266 638C425 638 419 484 335 379L46 18L46 0L487 0L487 74L182 74L410 355C462 419 476 489 470 549C461 638 392 710 268 710C133 710 66 642 59 517L129 517C136 601 182 638 266 638Z"  horiz-adv-x="542" vert-adv-y="1000"  />

      
      <glyph glyph-name="uni33" unicode="&#x33;" d="M48 188C59 62 154-11 278-11C428-11 520 85 520 219C520 332 433 428 317 425L519 687L519 700L79 700L79 629L390 629L198 381L198 362C316 393 442 343 441 219C441 119 374 61 277 61C193 61 132 103 121 188Z"  horiz-adv-x="576" vert-adv-y="1000"  />

      
      <glyph glyph-name="uni34" unicode="&#x34;" d="M467 147L539 147L539 215L467 215L467 690L385 690L30 183L30 147L391 147L391-9L467-9ZM399 596L396 388L396 212L130 212L398 596Z"  horiz-adv-x="588" vert-adv-y="1000"  />

      
      <glyph glyph-name="uni35" unicode="&#x35;" d="M155 625L489 625L489 700L79 700L79 362C126 377 189 384 253 384C352 384 448 349 448 220C448 101 359 63 288 63C208 63 148 105 139 182L60 182C71 55 168-10 289-10C435-10 528 81 530 222C533 394 402 457 262 457C225 457 190 453 155 444Z"  horiz-adv-x="580" vert-adv-y="1000"  />

      
      <glyph glyph-name="uni36" unicode="&#x36;" d="M305 703L82 362C54 319 39 271 39 220C39 70 153-8 293-8C433-8 549 70 549 220C549 364 441 446 305 444C274 443 243 437 216 421L397 703ZM293 63C197 63 121 120 121 220C121 321 196 378 292 378C390 378 466 321 466 220C466 120 390 63 293 63Z"  horiz-adv-x="587" vert-adv-y="1000"  />

      
      <glyph glyph-name="uni37" unicode="&#x37;" d="M504 700L37 700L37 626L391 626L97 0L182 0L504 688Z"  horiz-adv-x="517" vert-adv-y="1000"  />

      
      <glyph glyph-name="uni38" unicode="&#x38;" d="M423 391C479 418 521 465 521 533C521 639 430 710 309 710C188 710 98 638 99 532C99 464 141 417 194 392C115 363 54 301 54 204C54 67 164-9 309-9C455-9 565 77 564 204C564 303 503 360 423 391ZM309 418C238 418 173 458 173 530C173 602 240 643 309 643C381 643 446 602 446 531C446 459 380 418 309 418ZM309 60C219 60 136 114 136 206C136 299 217 354 309 354C400 354 483 300 483 207C483 114 400 60 309 60Z"  horiz-adv-x="618" vert-adv-y="1000"  />

      
      <glyph glyph-name="uni39" unicode="&#x39;" d="M282 0L503 342C533 388 549 430 549 486C550 637 433 715 294 715C154 715 38 637 38 486C38 342 145 260 284 262C315 263 348 270 375 285L190 0ZM294 643C390 643 467 586 467 486C467 385 391 328 295 328C198 328 121 385 121 486C121 586 197 643 294 643Z"  horiz-adv-x="586" vert-adv-y="1000"  />

      
      <glyph glyph-name="uni3a" unicode="&#x3a;" d="M119-8C148-8 171 11 171 38C171 69 148 86 119 86C91 86 68 69 68 38C68 11 91-8 119-8ZM119 324C148 324 171 344 171 371C171 402 148 419 119 419C91 419 68 402 68 371C68 344 91 324 119 324Z"  horiz-adv-x="239" vert-adv-y="1000"  />

      
      <glyph glyph-name="uni3b" unicode="&#x3b;" d="M118 326C146 326 168 344 168 371C168 400 146 418 118 418C91 418 69 400 69 371C69 344 91 326 118 326ZM169 30C170 33 169 39 168 46C161 67 143 80 120 80C92 80 71 62 71 34C71 11 86-3 106-10L86-80L135-80C144-52 152-24 163 6C166 13 168 21 169 30Z"  horiz-adv-x="239" vert-adv-y="1000"  />

      
      <glyph glyph-name="uni3c" unicode="&#x3c;" d="M50 318L445 138L445 213L142 347L445 475L445 550L50 377Z"  horiz-adv-x="533" vert-adv-y="1000"  />

      
      <glyph glyph-name="uni3d" unicode="&#x3d;" d="M74 220L459 220L459 286L74 286ZM74 377L459 377L459 443L74 443Z"  horiz-adv-x="533" vert-adv-y="1000"  />

      
      <glyph glyph-name="uni3e" unicode="&#x3e;" d="M483 377L88 550L88 479L391 347L88 209L88 138L483 318Z"  horiz-adv-x="533" vert-adv-y="1000"  />

      
      <glyph glyph-name="uni3f" unicode="&#x3f;" d="M276 148C268 354 454 357 454 513C454 637 363 704 248 704C137 704 45 649 37 521L113 521C124 595 184 633 249 630C317 627 370 584 370 517C370 366 197 389 201 148ZM241-12C269-12 290 6 290 34C290 62 269 80 241 80C213 80 191 62 191 34C191 6 213-12 241-12Z"  horiz-adv-x="492" vert-adv-y="1000"  />

      
      <glyph glyph-name="uni40" unicode="&#x40;" d="M599 88C592 32 611-9 668-9C779-9 852 122 864 248C887 491 742 648 500 648C263 648 77 482 55 245C27-62 257-217 532-122L537-73C287-169 81-31 107 245C127 454 288 597 495 597C711 597 834 461 814 248C807 171 769 47 697 49C664 50 664 81 668 124L695 421C646 466 571 498 496 498C357 498 232 409 218 245C206 111 272-7 416-6C495-6 566 32 601 104ZM601 235C593 145 532 65 434 65C330 65 288 149 296 245C307 364 387 431 482 431C535 431 578 422 615 391Z"  horiz-adv-x="908" vert-adv-y="1000"  />

      
      <glyph glyph-name="uni41" unicode="&#x41;" d="M528 173L610 0L696 0L696 11L373 703L335 703L9 11L9 0L96 0L178 173ZM353 572L500 245L206 245Z"  horiz-adv-x="706" vert-adv-y="1000"  />

      
      <glyph glyph-name="uni42" unicode="&#x42;" d="M586 510C586 643 492 700 366 700L93 700L93 0L396 0C527 0 618 69 618 197C618 285 572 342 492 365C552 388 586 442 586 510ZM361 630C445 630 505 599 505 509C505 422 442 392 361 392L176 392L176 630ZM371 322C463 322 536 290 534 197C533 112 472 72 390 72L176 72L176 322Z"  horiz-adv-x="668" vert-adv-y="1000"  />

      
      <glyph glyph-name="uni43" unicode="&#x43;" d="M50 350C50 130 209-7 404-7C544-7 679 67 719 224L638 224C601 123 510 69 403 69C242 69 135 192 135 350C135 513 243 633 404 631C505 630 591 584 634 489L715 489C673 635 539 707 404 708C207 710 50 569 50 350Z"  horiz-adv-x="761" vert-adv-y="1000"  />

      
      <glyph glyph-name="uni44" unicode="&#x44;" d="M93 700L93 0L341 0C555 0 681 155 681 351C681 543 555 700 341 700ZM177 76L177 623L339 623C499 623 598 505 598 350C598 193 499 76 339 76Z"  horiz-adv-x="732" vert-adv-y="1000"  />

      
      <glyph glyph-name="uni45" unicode="&#x45;" d="M500 700L93 700L93 0L511 0L511 77L177 77L177 325L489 325L489 398L177 398L177 627L500 627Z"  horiz-adv-x="569" vert-adv-y="1000"  />

      
      <glyph glyph-name="uni46" unicode="&#x46;" d="M482 369L177 369L177 626L509 626L509 700L93 700L93 0L177 0L177 295L482 295Z"  horiz-adv-x="550" vert-adv-y="1000"  />

      
      <glyph glyph-name="uni47" unicode="&#x47;" d="M50 351C50 134 201-9 399-9C540-9 657 57 709 186C732 242 739 304 736 368L410 368L410 297L659 297C646 145 543 68 399 68C236 68 134 188 134 351C134 510 236 634 399 634C504 634 591 601 628 500L710 500C670 646 536 710 399 710C204 710 50 568 50 351Z"  horiz-adv-x="777" vert-adv-y="1000"  />

      
      <glyph glyph-name="uni48" unicode="&#x48;" d="M630 0L630 700L546 700L546 405L176 405L176 700L93 700L93 0L176 0L176 328L546 328L546 0Z"  horiz-adv-x="723" vert-adv-y="1000"  />

      
      <glyph glyph-name="uni49" unicode="&#x49;" d="M242 67L242 634L355 634L355 700L45 700L45 634L158 634L158 67L37 67L37 0L363 0L363 67Z"  horiz-adv-x="400" vert-adv-y="1000"  />

      
      <glyph glyph-name="uni4a" unicode="&#x4a;" d="M553 700L298 700L298 626L469 626L469 236C469 127 395 66 290 66C185 66 113 125 113 236L113 308L34 308L34 235C34 83 142-9 290-9C438-9 553 80 553 235Z"  horiz-adv-x="639" vert-adv-y="1000"  />

      
      <glyph glyph-name="uni4b" unicode="&#x4b;" d="M176 700L93 700L93 0L176 0L176 310C215 310 293 312 330 323L552 0L647 0L647 12L403 357C452 400 476 473 497 545C518 618 549 652 628 643L628 699C497 723 449 662 423 569C404 503 379 426 335 400C304 381 243 380 176 380Z"  horiz-adv-x="666" vert-adv-y="1000"  />

      
      <glyph glyph-name="uni4c" unicode="&#x4c;" d="M177 700L93 700L93 0L507 0L507 75L177 75Z"  horiz-adv-x="523" vert-adv-y="1000"  />

      
      <glyph glyph-name="uni4d" unicode="&#x4d;" d="M414 310L126 701L93 701L93 0L177 0L177 505L407 189L420 189L650 505L650 0L734 0L734 701L702 701Z"  horiz-adv-x="827" vert-adv-y="1000"  />

      
      <glyph glyph-name="uni4e" unicode="&#x4e;" d="M626 0L653 0L653 701L569 701L569 373L578 172L122 702L93 702L93 0L176 0L176 337L169 529Z"  horiz-adv-x="746" vert-adv-y="1000"  />

      
      <glyph glyph-name="uni4f" unicode="&#x4f;" d="M760 350C760 572 601 712 405 712C209 712 50 574 50 350C50 127 207-10 404-10C615-10 760 138 760 350ZM134 350C134 522 253 636 405 636C560 636 676 520 676 350C676 180 558 66 404 66C251 66 134 180 134 350Z"  horiz-adv-x="810" vert-adv-y="1000"  />

      
      <glyph glyph-name="uni50" unicode="&#x50;" d="M176 1L176 223L373 223C521 223 618 328 618 461C618 595 523 700 373 701C281 701 185 701 93 701L93 1ZM175 298L175 627C242 627 309 627 373 627C469 626 537 558 537 463C537 366 466 298 373 298Z"  horiz-adv-x="650" vert-adv-y="1000"  />

      
      <glyph glyph-name="uni51" unicode="&#x51;" d="M750 6L680 114C731 174 760 255 760 351C760 572 601 714 405 714C196 714 50 563 50 351C50 136 206-8 402-8C486-8 562 17 625 64L672-5L750-5ZM134 351C134 530 253 637 405 637C558 637 677 531 677 351C677 175 558 65 405 65C253 65 134 168 134 351Z"  horiz-adv-x="809" vert-adv-y="1000"  />

      
      <glyph glyph-name="uni52" unicode="&#x52;" d="M444 268C542 292 611 368 611 476C611 603 516 701 372 701L93 701L93 0L177 0L177 257L360 257L554 0L642 0L642 12ZM176 326L176 627L372 627C463 627 530 567 530 477C530 386 461 326 372 326Z"  horiz-adv-x="672" vert-adv-y="1000"  />

      
      <glyph glyph-name="uni53" unicode="&#x53;" d="M47 191C52 47 198-14 328-11C455-8 599 45 599 195C599 350 469 374 330 391C245 401 144 406 144 510C144 602 240 636 317 637C397 639 491 609 499 520L577 520C572 656 436 713 315 712C192 710 61 647 61 509C61 369 189 338 316 323C411 312 519 308 517 195C516 93 411 62 327 61C241 59 133 97 128 191Z"  horiz-adv-x="646" vert-adv-y="1000"  />

      
      <glyph glyph-name="uni54" unicode="&#x54;" d="M234 625L234 0L315 0L315 625L531 625L531 700L18 700L18 625Z"  horiz-adv-x="549" vert-adv-y="1000"  />

      
      <glyph glyph-name="uni55" unicode="&#x55;" d="M355-8C506-8 621 81 621 238L621 700L539 700L539 239C539 128 461 66 355 66C248 66 170 128 170 239L170 700L86 700L86 238C86 81 203-8 355-8Z"  horiz-adv-x="707" vert-adv-y="1000"  />

      
      <glyph glyph-name="uni56" unicode="&#x56;" d="M333 143L332 143L231 405L110 700L21 700L21 688L314-2L349-2L640 688L640 700L551 700L431 405Z"  horiz-adv-x="662" vert-adv-y="1000"  />

      
      <glyph glyph-name="uni57" unicode="&#x57;" d="M462 687L283 143L282 143L202 441L122 700L33 700L33 687L251-3L309-3L482 510L483 510L658-3L716-3L931 689L931 700L844 700C816 613 787 531 764 442L688 143L686 143L503 687Z"  horiz-adv-x="965" vert-adv-y="1000"  />

      
      <glyph glyph-name="uni58" unicode="&#x58;" d="M316 423L219 570L128 700L38 700L38 688L266 369L12 12L12 0L104 0L221 166L315 310L318 310L414 164L530 0L621 0L621 11L367 369L595 689L595 700L506 700L416 572L318 423Z"  horiz-adv-x="632" vert-adv-y="1000"  />

      
      <glyph glyph-name="uni59" unicode="&#x59;" d="M313 366L212 537L110 700L19 700L19 689L272 287L272 0L356 0L356 287L608 688L608 700L519 700L417 536L316 366Z"  horiz-adv-x="628" vert-adv-y="1000"  />

      
      <glyph glyph-name="uni5a" unicode="&#x5a;" d="M548 700L48 700L48 626L417 626L21 11L21 0L549 0L549 76L152 76L548 687Z"  horiz-adv-x="584" vert-adv-y="1000"  />

      
      <glyph glyph-name="uni5b" unicode="&#x5b;" d="M259 755L83 755L83-175L259-175L259-103L157-103L157 690L259 690Z"  horiz-adv-x="300" vert-adv-y="1000"  />

      
      <glyph glyph-name="uni5c" unicode="&#x5c;" d="M112 700L30 700L368 1L450 1Z"  horiz-adv-x="481" vert-adv-y="1000"  />

      
      <glyph glyph-name="uni5d" unicode="&#x5d;" d="M41 690L143 690L143-103L41-103L41-175L217-175L217 755L41 755Z"  horiz-adv-x="300" vert-adv-y="1000"  />

      
      <glyph glyph-name="uni5e" unicode="&#x5e;" d="M232 701L60 416L131 416L260 631L394 416L465 416L289 701Z"  horiz-adv-x="525" vert-adv-y="1000"  />

      
      <glyph glyph-name="uni5f" unicode="&#x5f;" d="M67-80L549-80L549-12L67-12Z"  horiz-adv-x="616" vert-adv-y="1000"  />

      
      <glyph glyph-name="uni2018" unicode="&#x2018;" d="M62 590C61 583 62 580 63 573C68 553 87 540 110 540C138 540 160 558 160 586C160 609 145 625 124 630L145 702L95 702L67 614C64 606 63 598 62 590Z"  horiz-adv-x="222" vert-adv-y="1000"  />

      
      <glyph glyph-name="uni61" unicode="&#x61;" d="M400 87C400 0 438-15 518-2L517 48C458 40 461 71 461 124L461 325C461 451 359 493 250 493C186 493 122 479 75 455L88 395C129 419 183 430 238 430C304 430 390 408 390 327L390 268C342 295 279 308 224 308C124 308 34 251 37 141C40 44 121-7 210-7C283-7 365 20 400 87ZM389 163C373 91 287 59 224 59C170 59 117 83 114 144C111 213 173 248 237 248C286 248 345 234 389 209Z"  horiz-adv-x="544" vert-adv-y="1000"  />

      
      <glyph glyph-name="uni62" unicode="&#x62;" d="M73 29C135 3 204-11 270-11C410-11 533 56 533 238C533 398 425 489 302 491C252 492 200 479 151 450L151 731L73 731ZM149 378C194 410 244 426 291 425C379 424 455 364 455 238C455 109 372 58 275 56C234 55 190 64 149 79Z"  horiz-adv-x="578" vert-adv-y="1000"  />

      
      <glyph glyph-name="uni63" unicode="&#x63;" d="M524 335C494 440 399 493 301 494C175 495 45 411 45 243C45 77 173-7 299-7C400-7 500 48 529 162L453 162C427 94 364 61 300 61C213 61 124 124 124 243C124 363 216 424 304 424C365 424 423 395 449 335Z"  horiz-adv-x="567" vert-adv-y="1000"  />

      
      <glyph glyph-name="uni64" unicode="&#x64;" d="M441 81C441 0 486-14 564-1L563 55C494 47 506 94 506 159L506 732L428 732L428 441C379 474 327 489 277 489C153 490 45 397 45 242C45 107 123-9 267-8C344-8 408 30 441 103ZM430 221C430 134 370 61 278 61C174 61 124 146 124 242C124 357 196 419 284 420C331 421 383 404 430 369Z"  horiz-adv-x="601" vert-adv-y="1000"  />

      
      <glyph glyph-name="uni65" unicode="&#x65;" d="M292 493C160 493 50 406 45 254C40 90 153-10 313-10C372-10 433 3 490 30L478 89C422 66 370 54 315 54C206 54 118 122 123 233L506 233C533 392 456 492 292 493ZM292 431C378 431 445 384 440 293L126 293C139 380 204 431 292 431Z"  horiz-adv-x="554" vert-adv-y="1000"  />

      
      <glyph glyph-name="uni66" unicode="&#x66;" d="M127 0L205 0L205 418L380 418L380 478L205 478L205 564C205 691 302 694 398 654L409 712C264 768 128 739 128 559L128 478L24 478L24 418L127 418Z"  horiz-adv-x="390" vert-adv-y="1000"  />

      
      <glyph glyph-name="uni67" unicode="&#x67;" d="M427-39C427-156 358-199 275-200C215-201 148-180 93-150L80-212C142-247 212-266 276-266C399-266 503-198 503-33L503 445C443 472 379 489 311 489C162 489 46 408 46 239C46 75 148-17 273-13C322-12 375 3 427 36ZM426 104C380 70 331 53 286 53C197 52 124 116 124 240C124 363 209 423 309 423C348 423 387 415 426 400Z"  horiz-adv-x="576" vert-adv-y="1000"  />

      
      <glyph glyph-name="uni68" unicode="&#x68;" d="M514 0L514 284C514 409 452 493 320 494C245 494 198 472 155 419L155 731L76 731L76 0L155 0L155 281C155 370 213 430 300 429C384 429 434 376 434 284L434 0Z"  horiz-adv-x="584" vert-adv-y="1000"  />

      
      <glyph glyph-name="uni69" unicode="&#x69;" d="M68 641C68 574 167 574 167 641C167 707 68 707 68 641ZM156 478L78 478L78 0L156 0Z"  horiz-adv-x="234" vert-adv-y="1000"  />

      
      <glyph glyph-name="uni6a" unicode="&#x6a;" d="M78 480L78-55C78-151 63-207-43-188L-45-249C99-276 155-208 155-56L156 480ZM67 641C67 574 166 574 166 641C166 707 67 707 67 641Z"  horiz-adv-x="234" vert-adv-y="1000"  />

      
      <glyph glyph-name="uni6b" unicode="&#x6b;" d="M155 283L155 731L76 731L76 0L155 0L155 219L218 219C239 219 259 221 277 225L426 0L507 0L507 9L345 249C451 290 484 373 484 483L409 483C409 344 351 283 219 283Z"  horiz-adv-x="534" vert-adv-y="1000"  />

      
      <glyph glyph-name="uni6c" unicode="&#x6c;" d="M71 733L71 174C71 25 127-25 274-1L271 60C170 47 150 80 150 174L150 733Z"  horiz-adv-x="275" vert-adv-y="1000"  />

      
      <glyph glyph-name="uni6d" unicode="&#x6d;" d="M825 0L825 287C825 398 787 492 658 492C578 492 505 459 474 388C455 456 405 492 325 492C256 492 197 470 162 406C162 501 102 495 34 484L35 427C86 432 91 413 91 349L91 0L169 0L169 280C169 368 220 427 304 427C388 427 416 364 416 283L416 0L494 0L494 281C494 367 556 427 636 427C717 427 745 364 745 287L745 0Z"  horiz-adv-x="896" vert-adv-y="1000"  />

      
      <glyph glyph-name="uni6e" unicode="&#x6e;" d="M528 0L528 286C528 404 462 492 335 492C267 492 208 475 165 410C165 503 91 491 35 483L36 421C87 426 92 409 92 344L92 0L170 0L170 289C170 370 232 427 314 427C393 427 449 373 449 286L449 0Z"  horiz-adv-x="598" vert-adv-y="1000"  />

      
      <glyph glyph-name="uni6f" unicode="&#x6f;" d="M553 242C553 577 45 577 45 242C45-92 553-90 553 242ZM124 242C124 487 475 487 475 242C475-3 124-3 124 242Z"  horiz-adv-x="598" vert-adv-y="1000"  />

      
      <glyph glyph-name="uni70" unicode="&#x70;" d="M157 402C160 478 108 496 32 483L33 425C97 433 90 383 90 321L90-247L168-247L168 44C340-71 551 29 551 244C551 382 474 495 333 495C264 495 202 475 157 402ZM166 264C166 347 226 424 318 424C426 424 471 340 471 244C471 67 297 13 166 115Z"  horiz-adv-x="597" vert-adv-y="1000"  />

      
      <glyph glyph-name="uni71" unicode="&#x71;" d="M506 453C444 478 375 494 309 494C168 494 43 426 46 243C48 86 152-6 275-6C324-6 377 8 427 40L427-250L506-250ZM429 111C385 78 337 62 292 61C203 60 126 122 125 243C124 377 210 432 311 430C349 429 390 420 429 405Z"  horiz-adv-x="579" vert-adv-y="1000"  />

      
      <glyph glyph-name="uni72" unicode="&#x72;" d="M163 418C160 492 107 500 32 487L33 435C90 440 91 413 91 369L91 0L168 0L168 300C168 376 232 428 301 428C338 428 372 416 403 396L422 462C389 486 351 498 309 498C245 498 190 477 163 418Z"  horiz-adv-x="433" vert-adv-y="1000"  />

      
      <glyph glyph-name="uni73" unicode="&#x73;" d="M40 136C48 26 149-12 254-11C366-9 465 39 466 138C468 252 363 265 262 279C173 291 129 304 127 351C125 407 192 430 253 430C316 430 378 406 378 354L453 354C456 447 353 492 253 492C153 492 50 449 53 349C56 249 160 230 255 218C344 206 391 193 390 138C388 79 321 51 254 51C189 51 121 75 116 136Z"  horiz-adv-x="509" vert-adv-y="1000"  />

      
      <glyph glyph-name="uni74" unicode="&#x74;" d="M204 630L139 630L131 480L23 480L23 428L126 423L126 185C126 3 240-43 405 9L396 72C280 29 204 64 204 187L204 423L381 423L381 480L204 480Z"  horiz-adv-x="421" vert-adv-y="1000"  />

      
      <glyph glyph-name="uni75" unicode="&#x75;" d="M417 482L417 202C417 112 358 56 274 56C194 56 149 113 149 201L149 482L70 482L70 201C70 82 122-7 251-7C324-7 386 8 423 75C418-8 478-13 553 0L552 53C502 48 495 58 495 129L495 482Z"  horiz-adv-x="587" vert-adv-y="1000"  />

      
      <glyph glyph-name="uni76" unicode="&#x76;" d="M283-3L511 473L511 482L427 482L348 304L268 114L188 301L106 482L21 482L21 473L250-3Z"  horiz-adv-x="532" vert-adv-y="1000"  />

      
      <glyph glyph-name="uni77" unicode="&#x77;" d="M249-3L380 320L507-3L543-3L733 473L733 482L648 482C625 418 600 357 578 292L526 136L525 136L394 470L363 470L234 136L232 136L181 292L110 482L26 482L26 473L214-3Z"  horiz-adv-x="758" vert-adv-y="1000"  />

      
      <glyph glyph-name="uni78" unicode="&#x78;" d="M247 208L323 99L396 0L472 0L472 9L292 252L457 473L457 482L379 482L316 399L250 301L248 301L187 395L124 482L43 482L43 474L202 256L16 9L16 0L94 0L172 102L245 208Z"  horiz-adv-x="492" vert-adv-y="1000"  />

      
      <glyph glyph-name="uni79" unicode="&#x79;" d="M518 473L518 481L439 481L351 265L278 76L277 76L198 267L102 481L19 481L19 473L240-3L212-71C179-151 142-211 50-168L39-226C197-295 252-162 306-33Z"  horiz-adv-x="547" vert-adv-y="1000"  />

      
      <glyph glyph-name="uni7a" unicode="&#x7a;" d="M424 482L45 482L45 414L303 414L30 10L30 0L422 0L422 69L155 69L424 471Z"  horiz-adv-x="461" vert-adv-y="1000"  />

      
      <glyph glyph-name="uni7b" unicode="&#x7b;" d="M256 765C155 765 96 747 95 629L94 435C94 393 90 339 39 331L39 272C88 267 94 207 94 167L95-34C96-155 151-172 256-172L256-108C197-111 169-94 169-31L169 173C169 223 166 281 116 302C164 323 169 380 169 429L169 627C169 690 196 707 256 706Z"  horiz-adv-x="298" vert-adv-y="1000"  />

      
      <glyph glyph-name="uni7c" unicode="&#x7c;" d="M86 702L86-79L158-79L158 702Z"  horiz-adv-x="244" vert-adv-y="1000"  />

      
      <glyph glyph-name="uni7d" unicode="&#x7d;" d="M42 706C102 707 129 690 129 627L129 429C129 380 137 323 185 302C134 281 129 224 129 173L129-31C129-94 101-111 42-108L42-172C147-172 202-155 203-34L204 167C204 207 210 267 259 272L259 331C208 339 204 393 204 435L203 629C202 747 143 765 42 765Z"  horiz-adv-x="298" vert-adv-y="1000"  />

      
      <glyph glyph-name="uni7e" unicode="&#x7e;" d="M111 289C154 378 233 357 301 317C404 257 506 251 554 378L500 403C461 308 387 335 312 383C216 444 104 427 62 316Z"  horiz-adv-x="613" vert-adv-y="1000"  />

      
      <glyph glyph-name="unia1" unicode="&#xa1;" d="M117 488C89 488 67 469 67 442C67 414 89 396 117 396C144 396 165 414 165 442C165 469 144 488 117 488ZM153 322L79 322L75-224L158-224Z"  horiz-adv-x="232" vert-adv-y="1000"  />

      
      <glyph glyph-name="unia2" unicode="&#xa2;" d="M542 333C522 406 473 455 409 479L438 563L401 563L375 488C234 517 62 433 62 243C62 124 127 47 210 12L179-78L218-78L245 0C369-31 513 23 550 166L475 169C446 76 350 46 268 67L386 409C422 394 453 369 468 330ZM235 82C182 109 140 163 140 243C140 375 255 437 351 421Z"  horiz-adv-x="602" vert-adv-y="1000"  />

      
      <glyph glyph-name="unia3" unicode="&#xa3;" d="M47 320L136 320C144 277 150 239 148 204C144 118 116 67 54 8L54 0L135 0C226 59 385-8 477-8C572-8 616 50 608 167L541 167C544 83 511 60 463 60C374 60 269 121 180 83C204 117 219 154 224 195C229 238 224 280 217 320L450 320L450 381L208 381C165 552 249 633 358 638C418 641 484 626 541 589L569 649C501 688 431 709 362 709C213 708 82 601 127 381L47 381Z"  horiz-adv-x="657" vert-adv-y="1000"  />

      
      <glyph glyph-name="uni2044" unicode="&#x2044;" d="M6-59L88-59L470 729L388 729Z"  horiz-adv-x="473" vert-adv-y="1000"  />

      
      <glyph glyph-name="unia5" unicode="&#xa5;" d="M320 0L320 144L462 144L462 201L320 201L320 264L462 264L462 320L338 320L525 689L525 700L436 700L281 366L126 700L36 700L36 689L222 320L99 320L99 264L241 264L241 201L99 201L99 144L241 144L241 0Z"  horiz-adv-x="561" vert-adv-y="1000"  />

      
      <glyph glyph-name="uni0192" unicode="&#x0192;" d="M309 310L479 310L479 368L309 368L309 534C309 661 405 672 502 629L512 689C366 750 231 706 231 533L231 368L70 368L70 310L231 310L231-35C231-160 140-175 47-132L38-192C177-248 309-215 309-37Z"  horiz-adv-x="547" vert-adv-y="1000"  />

      
      <glyph glyph-name="unia7" unicode="&#xa7;" d="M415 177C372 185 330 189 287 193C211 201 149 224 146 296C143 354 196 390 250 404C270 401 288 399 311 397C424 385 510 369 510 287C510 231 466 192 415 177ZM176 425C116 401 69 358 71 288C75 179 171 143 274 134C354 127 504 125 504 21C504-56 398-84 325-87C250-90 137-61 134 21C107 21 83 20 55 20C58-104 209-154 326-151C440-148 585-101 585 21C585 94 545 130 489 153C542 180 585 225 585 289C586 424 458 443 323 457C231 467 151 478 151 548C151 628 247 651 314 654C383 657 479 630 484 555L561 555C556 674 420 722 312 719C201 716 72 667 72 547C72 479 115 446 176 425Z"  horiz-adv-x="643" vert-adv-y="1000"  />

      
      <glyph glyph-name="unia4" unicode="&#xa4;" d="M127 558L77 508L134 450C117 423 106 390 106 347C106 306 115 271 134 242L77 185L127 135L185 193C244 156 322 154 382 189L437 135L487 185L434 237C454 266 467 302 467 347C467 391 455 428 435 456L487 508L437 558L383 504C322 538 243 538 184 500ZM173 347C173 503 400 503 400 347C400 190 173 190 173 347Z"  horiz-adv-x="565" vert-adv-y="1000"  />

      
      <glyph glyph-name="uni27" unicode="&#x27;" d="M75 700L75 477L141 477L151 700Z"  horiz-adv-x="221" vert-adv-y="1000"  />

      
      <glyph glyph-name="uni201C" unicode="&#x201C;" d="M62 589C62 582 63 579 64 572C69 551 88 539 111 539C139 539 160 557 160 584C160 608 145 624 125 629L146 700L96 700L68 613C65 604 65 597 62 589ZM211 589C210 582 211 579 212 572C219 551 237 539 260 539C288 539 309 557 309 584C309 608 294 624 274 629L294 700L245 700L217 613C214 604 212 596 211 589Z"  horiz-adv-x="371" vert-adv-y="1000"  />

      
      <glyph glyph-name="uniab" unicode="&#xab;" d="M241 551L189 569L54 346L189 124L241 144L137 346ZM404 551L352 569L217 346L352 124L404 144L300 346Z"  horiz-adv-x="468" vert-adv-y="1000"  />

      
      <glyph glyph-name="uni2039" unicode="&#x2039;" d="M241 551L189 569L54 346L189 124L241 144L137 346Z"  horiz-adv-x="305" vert-adv-y="1000"  />

      
      <glyph glyph-name="uni203A" unicode="&#x203A;" d="M168 346L64 144L116 124L251 346L116 569L64 551Z"  horiz-adv-x="305" vert-adv-y="1000"  />

      
      <glyph glyph-name="uni2013" unicode="&#x2013;" d="M68 299L477 299L477 368L68 368Z"  horiz-adv-x="545" vert-adv-y="1000"  />

      
      <glyph glyph-name="uni2020" unicode="&#x2020;" d="M36 386L196 386L196-79L268-79L268 386L427 386L427 454L268 454L268 702L196 702L196 454L36 454Z"  horiz-adv-x="463" vert-adv-y="1000"  />

      
      <glyph glyph-name="uni2021" unicode="&#x2021;" d="M58 150L224 150L224-79L296-79L296 150L464 150L464 216L296 216L296 418L464 418L464 483L296 483L296 702L224 702L224 483L58 483L58 418L224 418L224 216L58 216Z"  horiz-adv-x="522" vert-adv-y="1000"  />

      
      <glyph glyph-name="unib7" unicode="&#xb7;" d="M119 311C147 311 170 330 170 358C170 387 147 406 119 406C91 406 68 387 68 358C68 330 91 311 119 311Z"  horiz-adv-x="238" vert-adv-y="1000"  />

      
      <glyph glyph-name="unib6" unicode="&#xb6;" d="M641-198L641 699L281 699C-55 699-31 186 273 178L273-198L352-198L352 627L563 627L563-198Z"  horiz-adv-x="735" vert-adv-y="1000"  />

      
      <glyph glyph-name="uni2022" unicode="&#x2022;" d="M192 259C249 259 298 301 298 357C298 418 249 456 192 456C136 456 88 418 88 357C88 301 136 259 192 259Z"  horiz-adv-x="386" vert-adv-y="1000"  />

      
      <glyph glyph-name="uni201A" unicode="&#x201A;" d="M167 30C168 33 167 39 166 46C159 67 141 80 118 80C90 80 69 62 69 34C69 11 84-3 104-10L82-85L132-85C143-54 150-25 161 5C164 13 166 21 167 30Z"  horiz-adv-x="236" vert-adv-y="1000"  />

      
      <glyph glyph-name="uni201E" unicode="&#x201E;" d="M167 30C167 35 166 39 165 46C160 67 141 80 118 80C90 80 69 62 69 34C69 11 84-3 104-10L82-82L132-82C141-53 150-24 161 6C164 14 164 21 167 30ZM336 30C337 33 336 39 335 46C328 67 311 80 288 80C260 80 238 62 238 34C238 11 253-3 274-10L252-82L302-82C311-53 320-24 331 6C334 14 335 21 336 30Z"  horiz-adv-x="405" vert-adv-y="1000"  />

      
      <glyph glyph-name="uni201D" unicode="&#x201D;" d="M163 653C163 660 164 663 161 670C156 690 137 703 114 703C86 703 65 685 65 657C65 634 80 619 100 612L79 541L129 541L157 629C160 638 162 646 163 653ZM315 653C316 660 315 663 314 670C307 690 289 703 266 703C238 703 217 685 217 657C217 634 232 619 252 612L232 541L281 541L309 629C312 638 314 646 315 653Z"  horiz-adv-x="376" vert-adv-y="1000"  />

      
      <glyph glyph-name="unibb" unicode="&#xbb;" d="M331 346L227 144L279 124L414 346L279 569L227 551ZM168 346L64 144L116 124L251 346L116 569L64 551Z"  horiz-adv-x="468" vert-adv-y="1000"  />

      
      <glyph glyph-name="uni2026" unicode="&#x2026;" d="M119-8C148-8 171 11 171 38C171 69 148 86 119 86C91 86 68 69 68 38C68 11 91-8 119-8ZM330-8C359-8 382 11 382 38C382 69 359 86 330 86C302 86 279 69 279 38C279 11 302-8 330-8ZM546-8C574-8 597 11 597 38C597 69 574 86 546 86C517 86 495 69 495 38C495 11 517-8 546-8Z"  horiz-adv-x="665" vert-adv-y="1000"  />

      
      <glyph glyph-name="uni2030" unicode="&#x2030;" d="M208 0L286 0L628 698L550 698ZM799 152C799 373 467 374 467 152C467-68 799-68 799 152ZM532 152C532 297 734 297 734 152C734 7 532 7 532 152ZM368 545C368 768 37 767 37 545C37 323 368 323 368 545ZM103 545C103 690 304 690 304 545C304 400 103 400 103 545ZM1195 152C1195 373 863 374 863 152C863-68 1195-68 1195 152ZM928 152C928 297 1130 297 1130 152C1130 7 928 7 928 152Z"  horiz-adv-x="1231" vert-adv-y="1000"  />

      
      <glyph glyph-name="unibf" unicode="&#xbf;" d="M214 337C218 131 36 128 36-27C36-151 127-218 242-218C353-218 445-163 453-35L377-35C366-109 306-147 241-144C173-141 120-98 120-31C120 119 293 95 289 337ZM249 498C221 498 200 479 200 451C200 423 221 405 249 405C277 405 299 423 299 451C299 479 277 498 249 498Z"  horiz-adv-x="485" vert-adv-y="1000"  />

      
      <glyph glyph-name="uni60" unicode="&#x60;" d="M237 582L237 589L162 721L90 692L90 685L171 582Z"  horiz-adv-x="336" vert-adv-y="1000"  />

      
      <glyph glyph-name="unib4" unicode="&#xb4;" d="M147 576L228 679L228 686L156 715L81 583L81 576Z"  horiz-adv-x="303" vert-adv-y="1000"  />

      
      <glyph glyph-name="uni02C6" unicode="&#x02C6;" d="M426 563L426 570L288 703L209 703L70 571L70 563L151 563L249 654L347 563Z"  horiz-adv-x="494" vert-adv-y="1000"  />

      
      <glyph glyph-name="uni02DC" unicode="&#x02DC;" d="M104 612C132 661 169 656 212 629C283 586 347 615 376 686C361 693 349 700 333 708C306 659 273 664 232 689C157 735 96 707 61 634Z"  horiz-adv-x="420" vert-adv-y="1000"  />

      
      <glyph glyph-name="uniaf" unicode="&#xaf;" d="M94 636L391 636L391 697L94 697Z"  horiz-adv-x="499" vert-adv-y="1000"  />

      
      <glyph glyph-name="uni02D8" unicode="&#x02D8;" d="M86 703C106 516 418 514 438 703L368 703C349 602 176 601 156 703Z"  horiz-adv-x="529" vert-adv-y="1000"  />

      
      <glyph glyph-name="uni02D9" unicode="&#x02D9;" d="M146 614C173 614 196 632 196 659C196 688 173 706 146 706C119 706 97 688 97 659C97 632 119 614 146 614Z"  horiz-adv-x="321" vert-adv-y="1000"  />

      
      <glyph glyph-name="unia8" unicode="&#xa8;" d="M367 618C394 618 416 636 416 663C416 691 394 709 367 709C339 709 318 691 318 663C318 636 339 618 367 618ZM132 618C160 618 182 636 182 663C182 691 160 709 132 709C105 709 83 691 83 663C83 636 105 618 132 618Z"  horiz-adv-x="507" vert-adv-y="1000"  />

      
      <glyph glyph-name="uni02DA" unicode="&#x02DA;" d="M300 614C300 753 75 753 75 614C75 475 300 475 300 614ZM122 614C122 694 253 694 253 614C253 534 122 534 122 614Z"  horiz-adv-x="379" vert-adv-y="1000"  />

      
      <glyph glyph-name="unib8" unicode="&#xb8;" d="M156-75C194-70 257-94 241-143C225-194 134-177 99-145L95-193C157-239 277-238 303-158C320-104 287-54 222-51L238 11L179 11Z"  horiz-adv-x="392" vert-adv-y="1000"  />

      
      <glyph glyph-name="uni02DD" unicode="&#x02DD;" d="M104 568L168 568L235 677L235 684L163 702L104 575ZM288 568L352 568L418 667L418 675L347 696L288 575Z"  horiz-adv-x="518" vert-adv-y="1000"  />

      
      <glyph glyph-name="uni02DB" unicode="&#x02DB;" d="M145 7C99-24 71-78 91-131C124-218 231-208 295-171L285-118C247-139 179-161 151-110C129-69 165-13 205 7Z"  horiz-adv-x="364" vert-adv-y="1000"  />

      
      <glyph glyph-name="uni02C7" unicode="&#x02C7;" d="M86 702L86 695L224 561L303 561L442 693L442 702L361 702L263 610L165 702Z"  horiz-adv-x="531" vert-adv-y="1000"  />

      
      <glyph glyph-name="uni2014" unicode="&#x2014;" d="M68 299L565 299L565 368L68 368Z"  horiz-adv-x="633" vert-adv-y="1000"  />

      
      <glyph glyph-name="unic6" unicode="&#xc6;" d="M191 200L403 200L403 0L766 0L766 73L476 73L476 327L745 327L745 398L476 398L476 624L761 624L761 698L364 698L8 12L8 0L89 0ZM405 623L406 623L403 270L219 270Z"  horiz-adv-x="825" vert-adv-y="1000"  />

      
      <glyph glyph-name="uniaa" unicode="&#xaa;" d="M329 401C321 348 368 330 422 344L420 380C389 377 382 389 382 410L382 573C382 670 308 705 221 705C177 705 133 695 98 676L109 633C140 650 176 657 212 657C268 657 319 637 319 574L319 543C286 560 245 570 206 570C134 571 63 532 66 450C69 375 128 342 194 342C246 342 304 357 329 401ZM88 214L409 214L409 266L88 266ZM319 459C306 412 252 391 205 391C162 391 128 411 128 455C128 503 169 524 215 524C252 524 288 517 319 498Z"  horiz-adv-x="493" vert-adv-y="1000"  />

      
      <glyph glyph-name="uni0141" unicode="&#x0141;" d="M184 700L100 700L100 354L24 333L24 264L100 286L100 0L505 0L505 75L184 75L184 309L294 342L294 411L184 378Z"  horiz-adv-x="530" vert-adv-y="1000"  />

      
      <glyph glyph-name="unid8" unicode="&#xd8;" d="M683 741L683 749L602 749L560 675C511 699 457 710 404 710C208 710 51 572 51 349C51 212 108 116 192 57L131-43L131-51L212-51L256 21C302 0 351-10 404-10C599-10 758 127 758 349C758 485 702 579 621 638ZM574 565C634 522 674 450 674 349C674 180 557 69 405 69C366 69 330 77 295 94ZM239 128C176 172 134 245 134 349C134 519 252 629 404 629C445 629 484 620 520 603Z"  horiz-adv-x="808" vert-adv-y="1000"  />

      
      <glyph glyph-name="uni0152" unicode="&#x0152;" d="M869 1L869 71L572 71L572 331L848 331L848 399L572 399L572 629L864 629L864 699L516 699C480 707 443 710 410 710C201 710 51 578 51 349C51 124 197-12 403-12C439-12 475-7 512 1ZM132 349C132 525 240 642 411 641C440 641 469 637 500 630L500 66C470 57 440 53 410 53C239 53 132 173 132 349Z"  horiz-adv-x="928" vert-adv-y="1000"  />

      
      <glyph glyph-name="uniba" unicode="&#xba;" d="M466 532C466 788 66 788 66 532C66 277 466 277 466 532ZM133 533C133 711 400 711 400 533C400 354 133 354 133 533ZM78 197L461 197L461 261L78 261Z"  horiz-adv-x="537" vert-adv-y="1000"  />

      
      <glyph glyph-name="unie6" unicode="&#xe6;" d="M204-8C292-8 367 23 415 91C451 23 517-9 605-10C661-10 717 4 772 27L759 85C714 64 657 51 605 52C500 55 441 120 441 232L787 232C814 373 753 491 596 491C513 491 448 449 419 376C406 461 320 491 237 491C173 491 118 475 74 451L87 396C122 416 170 430 226 430C294 430 374 404 374 322L374 265C338 285 298 295 258 300C238 303 217 304 197 302C108 295 36 239 38 137C39 43 119-8 204-8ZM375 202C376 183 379 170 384 153C360 89 286 53 219 54C163 54 116 81 114 141C112 210 167 242 231 242C280 242 332 229 375 202ZM591 429C676 428 729 376 725 292L444 292C457 376 507 429 591 429Z"  horiz-adv-x="836" vert-adv-y="1000"  />

      
      <glyph glyph-name="uni0131" unicode="&#x0131;" d="M157 481L78 481L78 0L157 0Z"  horiz-adv-x="235" vert-adv-y="1000"  />

      
      <glyph glyph-name="uni0142" unicode="&#x0142;" d="M84 731L84 356L7 334L7 265L84 288L84 206C84 38 127-33 287-9L284 52C183 36 163 81 163 176L163 310L259 339L259 407L163 378L163 731Z"  horiz-adv-x="292" vert-adv-y="1000"  />

      
      <glyph glyph-name="unif8" unicode="&#xf8;" d="M553 243C553 343 506 413 442 453L488 544L424 544L390 477C242 527 45 452 45 243C45 138 95 68 163 29L120-55L184-55L215 6C363-39 553 38 553 243ZM120 243C120 392 260 451 361 414L200 96C153 123 120 171 120 243ZM477 243C477 95 345 40 244 69L404 385C447 358 477 311 477 243Z"  horiz-adv-x="597" vert-adv-y="1000"  />

      
      <glyph glyph-name="uni0153" unicode="&#x0153;" d="M45 240C45-46 397-90 473 130C502 39 573-6 672-9C728-10 782 4 837 28L824 88C779 67 724 52 673 54C569 58 512 122 513 231L853 231C879 371 819 491 664 491C571 491 502 439 473 355C385 571 45 523 45 240ZM121 240C121 481 438 481 438 240C438 0 121 0 121 240ZM658 428C741 428 793 375 788 291L515 291C528 375 575 428 658 428Z"  horiz-adv-x="902" vert-adv-y="1000"  />

      
      <glyph glyph-name="unidf" unicode="&#xdf;" d="M75 1L154 1L154 491C154 636 262 665 401 620L258 380L258 355C357 382 459 323 459 215C459 95 379 36 255 68L255 2C422-42 543 37 543 215C543 330 460 414 361 414L506 650L506 671C386 707 75 782 75 501Z"  horiz-adv-x="588" vert-adv-y="1000"  />

      
      <glyph glyph-name="unib9" unicode="&#xb9;" d="M54 360L276 360L276 410L195 410L195 763L63 763L63 713L134 713L134 410L54 410Z"  horiz-adv-x="330" vert-adv-y="1000"  />

      
      <glyph glyph-name="uniac" unicode="&#xac;" d="M74 308L416 308L416 136L481 136L481 377L74 377Z"  horiz-adv-x="559" vert-adv-y="1000"  />

      
      <glyph glyph-name="unib5" unicode="&#xb5;" d="M512 0L512 483L436 483L436 201C436 112 377 53 293 53C205 54 156 107 156 198L156 483L81 483L81-249L156-249L156 74C181 22 224-7 295-7C366-7 416 30 436 90L436 0Z"  horiz-adv-x="572" vert-adv-y="1000"  />

      
      <glyph glyph-name="uni2122" unicode="&#x2122;" d="M168 652L168 422L223 422L223 652L321 652L321 701L70 701L70 652ZM401 701L371 701L371 422L427 422L427 593L521 478L525 478L620 593L620 422L676 422L676 701L646 701L523 556Z"  horiz-adv-x="759" vert-adv-y="1000"  />

      
      <glyph glyph-name="unid0" unicode="&#xd0;" d="M16 311L96 311L96 0L344 0C558 0 684 161 684 351C684 537 558 700 344 700L96 700L96 378L16 378ZM180 76L180 311L306 311L306 378L180 378L180 623L342 623C502 623 601 499 601 350C601 199 502 76 342 76Z"  horiz-adv-x="734" vert-adv-y="1000"  />

      
      <glyph glyph-name="unibd" unicode="&#xbd;" d="M244 1L309 1L648 700L582 700ZM50 304L273 304L273 350L192 350L192 708L60 708L60 658L131 658L131 350L50 350ZM860 54L692 54L812 195C884 280 856 409 724 409C641 409 601 365 598 292L651 292C654 335 678 356 723 356C803 356 814 281 763 220L591 14L591 0L860 0Z"  horiz-adv-x="904" vert-adv-y="1000"  />

      
      <glyph glyph-name="unib1" unicode="&#xb1;" d="M84 333L229 333L229 183L293 183L293 333L439 333L439 397L293 397L293 542L229 542L229 397L84 397ZM74 39L445 39L445 106L74 106Z"  horiz-adv-x="521" vert-adv-y="1000"  />

      
      <glyph glyph-name="unide" unicode="&#xde;" d="M175 189L175 521L373 521C469 521 538 451 538 356C538 259 468 189 373 189ZM93 0L177 0L177 116L373 116C521 116 618 221 618 354C618 488 523 594 373 594L177 594L177 700L93 700Z"  horiz-adv-x="653" vert-adv-y="1000"  />

      
      <glyph glyph-name="unibc" unicode="&#xbc;" d="M752 136L610 136L754 333L755 333C754 298 752 262 752 227ZM806 86L851 86L851 138L806 138L806 404L742 404L534 114L534 86L748 86L748 1L806 1ZM244 1L309 1L647 700L582 700ZM49 304L272 304L272 351L191 351L191 708L59 708L59 661L130 661L130 351L49 351Z"  horiz-adv-x="889" vert-adv-y="1000"  />

      
      <glyph glyph-name="unif7" unicode="&#xf7;" d="M271 150C298 150 321 168 321 195C321 223 298 241 271 241C244 241 222 223 222 195C222 168 244 150 271 150ZM271 477C298 477 321 495 321 522C321 550 298 568 271 568C244 568 222 550 222 522C222 495 244 477 271 477ZM77 324L467 324L467 393L77 393Z"  horiz-adv-x="544" vert-adv-y="1000"  />

      
      <glyph glyph-name="unia6" unicode="&#xa6;" d="M87 702L87 394L159 394L159 702ZM87 298L87-13L159-13L159 298Z"  horiz-adv-x="246" vert-adv-y="1000"  />

      
      <glyph glyph-name="unib0" unicode="&#xb0;" d="M379 554C379 759 52 759 52 554C52 349 379 348 379 554ZM112 554C112 687 319 689 319 554C319 420 112 420 112 554Z"  horiz-adv-x="431" vert-adv-y="1000"  />

      
      <glyph glyph-name="unife" unicode="&#xfe;" d="M537 245C537 461 337 559 154 445L154 719L76 719L76-246L154-246L154 45C336-66 537 29 537 245ZM458 245C458 67 285 15 153 117L153 373C285 475 458 423 458 245Z"  horiz-adv-x="583" vert-adv-y="1000"  />

      
      <glyph glyph-name="unibe" unicode="&#xbe;" d="M278 1L342 1L680 700L616 700ZM774 136L632 136L776 333L777 333C776 298 774 262 774 227ZM828 86L873 86L873 138L828 138L828 404L764 404L556 114L556 86L770 86L770 1L828 1ZM43 415C50 339 108 295 185 295C279 295 334 355 334 430C334 491 295 546 223 549L331 695L331 705L61 705L61 655L235 655L138 520L138 505C207 521 274 499 274 430C274 379 237 349 184 349C137 349 105 372 98 415Z"  horiz-adv-x="911" vert-adv-y="1000"  />

      
      <glyph glyph-name="unib2" unicode="&#xb2;" d="M334 414L166 414L286 555C358 640 330 769 198 769C115 769 75 725 72 652L125 652C128 695 152 716 197 716C277 716 288 641 237 580L65 374L65 360L334 360Z"  horiz-adv-x="403" vert-adv-y="1000"  />

      
      <glyph glyph-name="uniae" unicode="&#xae;" d="M734 350C734 805 57 805 57 350C57-106 734-104 734 350ZM460 308C507 317 537 357 537 406C537 474 486 513 421 513L287 513L287 186L338 186L338 301L409 301L494 186L547 186L547 194ZM338 469L417 469C457 469 486 443 486 406C486 367 457 343 417 343L338 343ZM117 350C117 736 675 736 675 350C675-34 117-34 117 350Z"  horiz-adv-x="791" vert-adv-y="1000"  />

      
      <glyph glyph-name="uni2212" unicode="&#x2212;" d="M74 319L459 319L459 388L74 388Z"  horiz-adv-x="533" vert-adv-y="1000"  />

      
      <glyph glyph-name="unif0" unicode="&#xf0;" d="M46 235C46-95 549-85 546 235C545 366 477 498 383 600L440 642L418 674L355 629C328 656 302 677 273 696L203 696L203 692C242 667 277 634 309 597L248 554L270 522L334 566C373 522 422 465 443 410C411 450 342 472 290 471C167 469 46 391 46 235ZM473 235C473 1 124 1 124 235C124 464 473 464 473 235Z"  horiz-adv-x="593" vert-adv-y="1000"  />

      
      <glyph glyph-name="unid7" unicode="&#xd7;" d="M69 456L177 347L70 239L117 192L225 299L333 192L380 239L272 346L381 456L334 503L225 395L115 503Z"  horiz-adv-x="450" vert-adv-y="1000"  />

      
      <glyph glyph-name="unib3" unicode="&#xb3;" d="M43 473C50 397 108 353 185 353C279 353 334 413 334 488C334 549 295 604 223 607L331 753L331 763L61 763L61 713L235 713L138 578L138 563C207 579 274 557 274 488C274 437 237 407 184 407C137 407 105 430 98 473Z"  horiz-adv-x="384" vert-adv-y="1000"  />

      
      <glyph glyph-name="unia9" unicode="&#xa9;" d="M734 347C734 802 57 802 57 347C57-109 734-107 734 347ZM550 403C510 569 236 547 236 346C236 145 515 122 555 299L505 299C489 250 446 227 403 229C341 231 288 276 288 346C288 482 469 503 501 399ZM116 347C116 733 675 733 675 347C675-37 116-37 116 347Z"  horiz-adv-x="791" vert-adv-y="1000"  />

      
      <glyph glyph-name="unic1" unicode="&#xc1;" d="M528 173L610 0L696 0L696 11L373 703L335 703L9 11L9 0L96 0L178 173ZM353 572L500 245L206 245ZM388 767L469 870L469 877L397 906L322 774L322 767Z"  horiz-adv-x="706" vert-adv-y="1000"  />

      
      <glyph glyph-name="unic2" unicode="&#xc2;" d="M528 173L610 0L696 0L696 11L373 703L335 703L9 11L9 0L96 0L178 173ZM353 572L500 245L206 245ZM530 745L530 752L392 885L313 885L174 753L174 745L255 745L353 836L451 745Z"  horiz-adv-x="706" vert-adv-y="1000"  />

      
      <glyph glyph-name="unic4" unicode="&#xc4;" d="M528 173L610 0L696 0L696 11L373 703L335 703L9 11L9 0L96 0L178 173ZM353 572L500 245L206 245ZM472 757C499 757 521 775 521 802C521 830 499 848 472 848C444 848 423 830 423 802C423 775 444 757 472 757ZM237 757C265 757 287 775 287 802C287 830 265 848 237 848C210 848 188 830 188 802C188 775 210 757 237 757Z"  horiz-adv-x="706" vert-adv-y="1000"  />

      
      <glyph glyph-name="unic0" unicode="&#xc0;" d="M528 173L610 0L696 0L696 11L373 703L335 703L9 11L9 0L96 0L178 173ZM353 572L500 245L206 245ZM393 764L393 771L318 903L246 874L246 867L327 764Z"  horiz-adv-x="706" vert-adv-y="1000"  />

      
      <glyph glyph-name="unic5" unicode="&#xc5;" d="M281 801C281 885 421 885 421 801C421 716 281 716 281 801ZM353 564L500 245L206 245ZM528 173L610 0L696 0L696 11L377 695C426 703 470 737 470 801C470 948 232 948 232 801C232 735 278 702 330 694L9 11L9 0L96 0L178 173Z"  horiz-adv-x="706" vert-adv-y="1000"  />

      
      <glyph glyph-name="unic3" unicode="&#xc3;" d="M528 173L610 0L696 0L696 11L373 703L335 703L9 11L9 0L96 0L178 173ZM353 572L500 245L206 245ZM239 763C267 812 304 807 347 780C418 737 482 766 511 837C496 844 484 851 468 859C441 810 408 815 367 840C292 886 231 858 196 785Z"  horiz-adv-x="706" vert-adv-y="1000"  />

      
      <glyph glyph-name="unic7" unicode="&#xc7;" d="M50 350C50 142 193 2 380-5L360-81C398-78 457-94 441-143C425-194 338-185 303-153L299-200C361-246 481-247 507-165C526-106 490-64 426-61L440-4C567 6 682 83 719 224L638 224C601 123 510 69 403 69C242 69 135 192 135 350C135 513 243 633 404 631C505 630 591 584 634 489L715 489C673 635 539 707 404 708C207 710 50 569 50 350Z"  horiz-adv-x="761" vert-adv-y="1000"  />

      
      <glyph glyph-name="unic9" unicode="&#xc9;" d="M500 700L93 700L93 0L511 0L511 77L177 77L177 325L489 325L489 398L177 398L177 627L500 627ZM332 762L413 865L413 872L341 901L266 769L266 762Z"  horiz-adv-x="569" vert-adv-y="1000"  />

      
      <glyph glyph-name="unica" unicode="&#xca;" d="M500 700L93 700L93 0L511 0L511 77L177 77L177 325L489 325L489 398L177 398L177 627L500 627ZM469 766L469 773L337 904L261 904L129 774L129 766L206 766L300 856L393 766Z"  horiz-adv-x="569" vert-adv-y="1000"  />

      
      <glyph glyph-name="unicb" unicode="&#xcb;" d="M500 700L93 700L93 0L511 0L511 77L177 77L177 325L489 325L489 398L177 398L177 627L500 627ZM416 766C443 766 465 784 465 811C465 839 443 857 416 857C388 857 367 839 367 811C367 784 388 766 416 766ZM181 766C209 766 231 784 231 811C231 839 209 857 181 857C154 857 132 839 132 811C132 784 154 766 181 766Z"  horiz-adv-x="569" vert-adv-y="1000"  />

      
      <glyph glyph-name="unic8" unicode="&#xc8;" d="M500 700L93 700L93 0L511 0L511 77L177 77L177 325L489 325L489 398L177 398L177 627L500 627ZM361 761L361 768L286 900L214 871L214 864L295 761Z"  horiz-adv-x="569" vert-adv-y="1000"  />

      
      <glyph glyph-name="unicd" unicode="&#xcd;" d="M242 67L242 634L355 634L355 700L45 700L45 634L158 634L158 67L37 67L37 0L363 0L363 67ZM219 761L300 864L300 871L228 900L153 768L153 761Z"  horiz-adv-x="400" vert-adv-y="1000"  />

      
      <glyph glyph-name="unice" unicode="&#xce;" d="M242 67L242 634L355 634L355 700L45 700L45 634L158 634L158 67L37 67L37 0L363 0L363 67ZM375 752L375 758L243 888L168 888L35 759L35 752L112 752L206 840L300 752Z"  horiz-adv-x="400" vert-adv-y="1000"  />

      
      <glyph glyph-name="unicf" unicode="&#xcf;" d="M242 67L242 634L355 634L355 700L45 700L45 634L158 634L158 67L37 67L37 0L363 0L363 67ZM322 758C349 758 371 776 371 803C371 831 349 849 322 849C294 849 273 831 273 803C273 776 294 758 322 758ZM87 758C115 758 137 776 137 803C137 831 115 849 87 849C60 849 38 831 38 803C38 776 60 758 87 758Z"  horiz-adv-x="400" vert-adv-y="1000"  />

      
      <glyph glyph-name="unicc" unicode="&#xcc;" d="M242 67L242 634L355 634L355 700L45 700L45 634L158 634L158 67L37 67L37 0L363 0L363 67ZM232 765L232 772L157 904L85 875L85 868L166 765Z"  horiz-adv-x="400" vert-adv-y="1000"  />

      
      <glyph glyph-name="unid1" unicode="&#xd1;" d="M626 0L653 0L653 701L569 701L569 373L578 172L122 702L93 702L93 0L176 0L176 337L169 529ZM255 758C283 807 320 802 363 775C434 732 498 761 527 832C512 839 500 846 484 854C457 805 424 810 383 835C308 881 247 853 212 780Z"  horiz-adv-x="746" vert-adv-y="1000"  />

      
      <glyph glyph-name="unid3" unicode="&#xd3;" d="M760 350C760 572 601 712 405 712C209 712 50 574 50 350C50 127 207-10 404-10C615-10 760 138 760 350ZM134 350C134 522 253 636 405 636C560 636 676 520 676 350C676 180 558 66 404 66C251 66 134 180 134 350ZM437 775L518 878L518 885L446 914L371 782L371 775Z"  horiz-adv-x="810" vert-adv-y="1000"  />

      
      <glyph glyph-name="unid4" unicode="&#xd4;" d="M760 350C760 572 601 712 405 712C209 712 50 574 50 350C50 127 207-10 404-10C615-10 760 138 760 350ZM134 350C134 522 253 636 405 636C560 636 676 520 676 350C676 180 558 66 404 66C251 66 134 180 134 350ZM581 765L581 772L443 905L364 905L225 773L225 765L306 765L404 856L502 765Z"  horiz-adv-x="810" vert-adv-y="1000"  />

      
      <glyph glyph-name="unid6" unicode="&#xd6;" d="M760 350C760 572 601 712 405 712C209 712 50 574 50 350C50 127 207-10 404-10C615-10 760 138 760 350ZM134 350C134 522 253 636 405 636C560 636 676 520 676 350C676 180 558 66 404 66C251 66 134 180 134 350ZM518 773C545 773 567 791 567 818C567 846 545 864 518 864C490 864 469 846 469 818C469 791 490 773 518 773ZM283 773C311 773 333 791 333 818C333 846 311 864 283 864C256 864 234 846 234 818C234 791 256 773 283 773Z"  horiz-adv-x="810" vert-adv-y="1000"  />

      
      <glyph glyph-name="unid2" unicode="&#xd2;" d="M760 350C760 572 601 712 405 712C209 712 50 574 50 350C50 127 207-10 404-10C615-10 760 138 760 350ZM134 350C134 522 253 636 405 636C560 636 676 520 676 350C676 180 558 66 404 66C251 66 134 180 134 350ZM448 774L448 781L373 913L301 884L301 877L382 774Z"  horiz-adv-x="810" vert-adv-y="1000"  />

      
      <glyph glyph-name="unid5" unicode="&#xd5;" d="M760 350C760 572 601 712 405 712C209 712 50 574 50 350C50 127 207-10 404-10C615-10 760 138 760 350ZM134 350C134 522 253 636 405 636C560 636 676 520 676 350C676 180 558 66 404 66C251 66 134 180 134 350ZM293 785C321 834 358 829 401 802C472 759 536 788 565 859C550 866 538 873 522 881C495 832 462 837 421 862C346 908 285 880 250 807Z"  horiz-adv-x="810" vert-adv-y="1000"  />

      
      <glyph glyph-name="uni0160" unicode="&#x0160;" d="M47 191C52 47 198-14 328-11C455-8 599 45 599 195C599 350 469 374 330 391C245 401 144 406 144 510C144 602 240 636 317 637C397 639 491 609 499 520L577 520C572 656 436 713 315 712C192 710 61 647 61 509C61 369 189 338 316 323C411 312 519 308 517 195C516 93 411 62 327 61C241 59 133 97 128 191ZM148 928L148 921L286 787L365 787L504 919L504 928L423 928L325 836L227 928Z"  horiz-adv-x="646" vert-adv-y="1000"  />

      
      <glyph glyph-name="unida" unicode="&#xda;" d="M355-8C506-8 621 81 621 238L621 700L539 700L539 239C539 128 461 66 355 66C248 66 170 128 170 239L170 700L86 700L86 238C86 81 203-8 355-8ZM382 770L463 873L463 880L391 909L316 777L316 770Z"  horiz-adv-x="707" vert-adv-y="1000"  />

      
      <glyph glyph-name="unidb" unicode="&#xdb;" d="M355-8C506-8 621 81 621 238L621 700L539 700L539 239C539 128 461 66 355 66C248 66 170 128 170 239L170 700L86 700L86 238C86 81 203-8 355-8ZM530 769L530 776L392 909L313 909L174 777L174 769L255 769L353 860L451 769Z"  horiz-adv-x="707" vert-adv-y="1000"  />

      
      <glyph glyph-name="unidc" unicode="&#xdc;" d="M355-8C506-8 621 81 621 238L621 700L539 700L539 239C539 128 461 66 355 66C248 66 170 128 170 239L170 700L86 700L86 238C86 81 203-8 355-8ZM469 769C496 769 518 787 518 814C518 842 496 860 469 860C441 860 420 842 420 814C420 787 441 769 469 769ZM234 769C262 769 284 787 284 814C284 842 262 860 234 860C207 860 185 842 185 814C185 787 207 769 234 769Z"  horiz-adv-x="707" vert-adv-y="1000"  />

      
      <glyph glyph-name="unid9" unicode="&#xd9;" d="M355-8C506-8 621 81 621 238L621 700L539 700L539 239C539 128 461 66 355 66C248 66 170 128 170 239L170 700L86 700L86 238C86 81 203-8 355-8ZM395 773L395 780L320 912L248 883L248 876L329 773Z"  horiz-adv-x="707" vert-adv-y="1000"  />

      
      <glyph glyph-name="unidd" unicode="&#xdd;" d="M313 366L212 537L110 700L19 700L19 689L272 287L272 0L356 0L356 287L608 688L608 700L519 700L417 536L316 366ZM328 765L409 868L409 875L337 904L262 772L262 765Z"  horiz-adv-x="628" vert-adv-y="1000"  />

      
      <glyph glyph-name="uni0178" unicode="&#x0178;" d="M313 366L212 537L110 700L19 700L19 689L272 287L272 0L356 0L356 287L608 688L608 700L519 700L417 536L316 366ZM430 752C457 752 479 770 479 797C479 825 457 843 430 843C402 843 381 825 381 797C381 770 402 752 430 752ZM195 752C223 752 245 770 245 797C245 825 223 843 195 843C168 843 146 825 146 797C146 770 168 752 195 752Z"  horiz-adv-x="628" vert-adv-y="1000"  />

      
      <glyph glyph-name="uni017D" unicode="&#x017D;" d="M548 700L48 700L48 626L417 626L21 11L21 0L549 0L549 76L152 76L548 687ZM117 923L117 916L255 782L334 782L473 914L473 923L392 923L294 831L196 923Z"  horiz-adv-x="584" vert-adv-y="1000"  />

      
      <glyph glyph-name="unie1" unicode="&#xe1;" d="M400 87C400 0 438-15 518-2L517 48C458 40 461 71 461 124L462 325C463 451 360 493 250 493C186 493 122 479 75 455L88 395C129 419 183 430 238 430C306 430 386 408 386 327L386 268C338 295 279 308 224 308C124 308 34 251 37 141C40 44 121-7 210-7C283-7 365 20 400 87ZM385 163C369 91 291 59 224 59C170 59 117 83 114 144C111 213 173 248 237 248C286 248 341 234 385 209ZM273 587L350 684L350 690L282 717L211 593L211 587Z"  horiz-adv-x="544" vert-adv-y="1000"  />

      
      <glyph glyph-name="unie2" unicode="&#xe2;" d="M400 87C400 0 438-15 518-2L517 48C458 40 461 71 461 124L462 325C463 451 360 493 250 493C186 493 122 479 75 455L88 395C129 419 183 430 238 430C306 430 386 408 386 327L386 268C338 295 279 308 224 308C124 308 34 251 37 141C40 44 121-7 210-7C283-7 365 20 400 87ZM385 163C369 91 291 59 224 59C170 59 117 83 114 144C111 213 173 248 237 248C286 248 341 234 385 209ZM413 579L413 586L291 713L221 713L99 587L99 579L170 579L257 666L343 579Z"  horiz-adv-x="544" vert-adv-y="1000"  />

      
      <glyph glyph-name="unie4" unicode="&#xe4;" d="M360 599C387 599 409 617 409 644C409 672 387 690 360 690C332 690 311 672 311 644C311 617 332 599 360 599ZM157 599C185 599 207 617 207 644C207 672 185 690 157 690C130 690 108 672 108 644C108 617 130 599 157 599ZM400 87C400 0 438-15 518-2L517 48C458 40 461 71 461 124L462 325C463 451 360 493 250 493C186 493 122 479 75 455L88 395C129 419 183 430 238 430C306 430 386 408 386 327L386 268C338 295 279 308 224 308C124 308 34 251 37 141C40 44 121-7 210-7C283-7 365 20 400 87ZM385 163C369 91 291 59 224 59C170 59 117 83 114 144C111 213 173 248 237 248C286 248 341 234 385 209Z"  horiz-adv-x="544" vert-adv-y="1000"  />

      
      <glyph glyph-name="unie0" unicode="&#xe0;" d="M400 87C400 0 438-15 518-2L517 48C458 40 461 71 461 124L462 325C463 451 360 493 250 493C186 493 122 479 75 455L88 395C129 419 183 430 238 430C306 430 386 408 386 327L386 268C338 295 279 308 224 308C124 308 34 251 37 141C40 44 121-7 210-7C283-7 365 20 400 87ZM385 163C369 91 291 59 224 59C170 59 117 83 114 144C111 213 173 248 237 248C286 248 341 234 385 209ZM312 587L312 593L243 714L177 688L177 681L252 587Z"  horiz-adv-x="544" vert-adv-y="1000"  />

      
      <glyph glyph-name="unie5" unicode="&#xe5;" d="M400 87C400 0 438-15 518-2L517 48C458 40 461 71 461 124L462 325C463 451 360 493 250 493C186 493 122 479 75 455L88 395C129 419 183 430 238 430C306 430 386 408 386 327L386 268C338 295 279 308 224 308C124 308 34 251 37 141C40 44 121-7 210-7C283-7 365 20 400 87ZM385 163C369 91 291 59 224 59C170 59 117 83 114 144C111 213 173 248 237 248C286 248 341 234 385 209ZM379 652C379 774 161 774 161 652C161 528 379 528 379 652ZM206 652C206 722 333 722 333 652C333 580 206 580 206 652Z"  horiz-adv-x="544" vert-adv-y="1000"  />

      
      <glyph glyph-name="unie3" unicode="&#xe3;" d="M400 87C400 0 438-15 518-2L517 48C458 40 461 71 461 124L462 325C463 451 360 493 250 493C186 493 122 479 75 455L88 395C129 419 183 430 238 430C306 430 386 408 386 327L386 268C338 295 279 308 224 308C124 308 34 251 37 141C40 44 121-7 210-7C283-7 365 20 400 87ZM385 163C369 91 291 59 224 59C170 59 117 83 114 144C111 213 173 248 237 248C286 248 341 234 385 209ZM150 607C177 654 211 648 251 623C316 583 376 611 404 676C389 683 379 689 363 697C339 650 307 656 269 679C199 722 142 696 110 628C122 621 138 614 150 607Z"  horiz-adv-x="544" vert-adv-y="1000"  />

      
      <glyph glyph-name="unie7" unicode="&#xe7;" d="M261-75C298-70 360-94 344-143C328-194 237-177 202-145L198-193C260-239 380-238 406-158C423-104 390-54 325-51L337-4C425 6 505 64 531 162L453 162C391 1 124 36 124 243C124 446 386 481 449 335L526 335C460 577 45 540 45 243C45 87 162 1 279-6Z"  horiz-adv-x="569" vert-adv-y="1000"  />

      
      <glyph glyph-name="unie9" unicode="&#xe9;" d="M292 493C160 493 50 406 45 254C40 90 153-10 313-10C372-10 433 3 490 30L478 89C422 66 370 54 315 54C206 54 118 122 123 233L506 233C533 392 456 492 292 493ZM292 431C378 431 445 384 440 293L126 293C139 380 204 431 292 431ZM306 592L381 688L381 694L314 721L244 599L244 592Z"  horiz-adv-x="554" vert-adv-y="1000"  />

      
      <glyph glyph-name="uniea" unicode="&#xea;" d="M292 493C160 493 50 406 45 254C40 90 153-10 313-10C372-10 433 3 490 30L478 89C422 66 370 54 315 54C206 54 118 122 123 233L506 233C533 392 456 492 292 493ZM292 431C378 431 445 384 440 293L126 293C139 380 204 431 292 431ZM455 578L455 585L327 708L254 708L125 586L125 578L200 578L291 663L381 578Z"  horiz-adv-x="554" vert-adv-y="1000"  />

      
      <glyph glyph-name="unieb" unicode="&#xeb;" d="M389 608C414 608 434 626 434 650C434 675 414 692 389 692C362 692 343 675 343 650C343 626 362 608 389 608ZM183 608C210 608 230 626 230 650C230 675 210 692 183 692C158 692 138 675 138 650C138 626 158 608 183 608ZM292 493C160 493 50 406 45 254C40 90 153-10 313-10C372-10 433 3 490 30L478 89C422 66 370 54 315 54C206 54 118 122 123 233L506 233C533 392 456 492 292 493ZM292 431C378 431 445 384 440 293L126 293C139 380 204 431 292 431Z"  horiz-adv-x="554" vert-adv-y="1000"  />

      
      <glyph glyph-name="unie8" unicode="&#xe8;" d="M292 493C160 493 50 406 45 254C40 90 153-10 313-10C372-10 433 3 490 30L478 89C422 66 370 54 315 54C206 54 118 122 123 233L506 233C533 392 456 492 292 493ZM292 431C378 431 445 384 440 293L126 293C139 380 204 431 292 431ZM336 591L336 597L266 721L198 694L198 687L274 591Z"  horiz-adv-x="554" vert-adv-y="1000"  />

      
      <glyph glyph-name="unied" unicode="&#xed;" d="M157 481L78 481L78 0L157 0ZM139 585L216 683L216 690L147 718L76 591L76 585Z"  horiz-adv-x="235" vert-adv-y="1000"  />

      
      <glyph glyph-name="uniee" unicode="&#xee;" d="M157 481L78 481L78 0L157 0ZM266 567L266 574L150 712L83 712L-33 575L-33 567L34 567L117 661L200 567Z"  horiz-adv-x="235" vert-adv-y="1000"  />

      
      <glyph glyph-name="unief" unicode="&#xef;" d="M203 618C230 618 252 636 252 663C252 691 230 709 203 709C175 709 154 691 154 663C154 636 175 618 203 618ZM28 618C56 618 78 636 78 663C78 691 56 709 28 709C1 709-20 691-20 663C-20 636 1 618 28 618ZM157 481L78 481L78 0L157 0Z"  horiz-adv-x="235" vert-adv-y="1000"  />

      
      <glyph glyph-name="uniec" unicode="&#xec;" d="M157 481L78 481L78 0L157 0ZM160 584L160 591L88 718L18 690L18 684L96 584Z"  horiz-adv-x="235" vert-adv-y="1000"  />

      
      <glyph glyph-name="unif1" unicode="&#xf1;" d="M528 0L528 286C528 404 462 492 335 492C267 492 208 475 165 410C165 503 91 491 35 483L36 421C87 426 92 409 92 344L92 0L170 0L170 289C170 370 232 427 314 427C393 427 449 373 449 286L449 0ZM193 610C220 657 255 650 295 626C362 585 422 613 450 680L410 701C385 654 354 659 314 683C243 725 185 700 153 631C165 624 181 617 193 610Z"  horiz-adv-x="598" vert-adv-y="1000"  />

      
      <glyph glyph-name="unif3" unicode="&#xf3;" d="M553 242C553 577 45 577 45 242C45-92 553-90 553 242ZM124 242C124 487 475 487 475 242C475-3 124-3 124 242ZM323 585L398 681L398 687L331 714L261 592L261 585Z"  horiz-adv-x="598" vert-adv-y="1000"  />

      
      <glyph glyph-name="unif4" unicode="&#xf4;" d="M553 242C553 577 45 577 45 242C45-92 553-90 553 242ZM124 242C124 487 475 487 475 242C475-3 124-3 124 242ZM461 572L461 579L335 706L262 706L135 580L135 572L209 572L299 659L389 572Z"  horiz-adv-x="598" vert-adv-y="1000"  />

      
      <glyph glyph-name="unif6" unicode="&#xf6;" d="M395 608C420 608 440 626 440 650C440 675 420 692 395 692C368 692 349 675 349 650C349 626 368 608 395 608ZM196 608C223 608 243 626 243 650C243 675 223 692 196 692C171 692 151 675 151 650C151 626 171 608 196 608ZM553 242C553 577 45 577 45 242C45-92 553-90 553 242ZM124 242C124 487 475 487 475 242C475-3 124-3 124 242Z"  horiz-adv-x="598" vert-adv-y="1000"  />

      
      <glyph glyph-name="unif2" unicode="&#xf2;" d="M553 242C553 577 45 577 45 242C45-92 553-90 553 242ZM124 242C124 487 475 487 475 242C475-3 124-3 124 242ZM336 583L336 589L267 711L200 684L200 678L275 583Z"  horiz-adv-x="598" vert-adv-y="1000"  />

      
      <glyph glyph-name="unif5" unicode="&#xf5;" d="M553 242C553 577 45 577 45 242C45-92 553-90 553 242ZM124 242C124 487 475 487 475 242C475-3 124-3 124 242ZM189 609C216 656 251 649 291 625C358 584 418 612 446 679L406 700C381 653 350 658 310 682C239 724 181 699 149 630C161 623 177 616 189 609Z"  horiz-adv-x="598" vert-adv-y="1000"  />

      
      <glyph glyph-name="uni0161" unicode="&#x0161;" d="M40 136C48 26 149-12 254-11C366-9 465 39 466 138C468 252 363 265 262 279C173 291 129 304 127 351C125 407 192 430 253 430C316 430 378 406 378 354L453 354C456 447 353 492 253 492C153 492 50 449 53 349C56 249 160 230 255 218C344 206 391 193 390 138C388 79 321 51 254 51C189 51 121 75 116 136ZM95 690L95 683L220 563L292 563L418 682L418 690L344 690L255 607L167 690Z"  horiz-adv-x="509" vert-adv-y="1000"  />

      
      <glyph glyph-name="unifa" unicode="&#xfa;" d="M417 482L417 202C417 112 358 56 274 56C194 56 149 113 149 201L149 482L70 482L70 201C70 82 122-7 251-7C324-7 386 8 423 75C418-8 478-13 553 0L552 53C502 48 495 58 495 129L495 482ZM304 584L381 681L381 687L313 714L242 590L242 584Z"  horiz-adv-x="587" vert-adv-y="1000"  />

      
      <glyph glyph-name="unifb" unicode="&#xfb;" d="M417 482L417 202C417 112 358 56 274 56C194 56 149 113 149 201L149 482L70 482L70 201C70 82 122-7 251-7C324-7 386 8 423 75C418-8 478-13 553 0L552 53C502 48 495 58 495 129L495 482ZM455 578L455 584L323 711L247 711L115 585L115 578L192 578L286 665L379 578Z"  horiz-adv-x="587" vert-adv-y="1000"  />

      
      <glyph glyph-name="unifc" unicode="&#xfc;" d="M417 482L417 202C417 112 358 56 274 56C194 56 149 113 149 201L149 482L70 482L70 201C70 82 122-7 251-7C324-7 386 8 423 75C418-8 478-13 553 0L552 53C502 48 495 58 495 129L495 482ZM392 600C419 600 440 617 440 644C440 671 419 688 392 688C365 688 344 671 344 644C344 617 365 600 392 600ZM163 600C190 600 212 617 212 644C212 671 190 688 163 688C136 688 115 671 115 644C115 617 136 600 163 600Z"  horiz-adv-x="587" vert-adv-y="1000"  />

      
      <glyph glyph-name="unif9" unicode="&#xf9;" d="M417 482L417 202C417 112 358 56 274 56C194 56 149 113 149 201L149 482L70 482L70 201C70 82 122-7 251-7C324-7 386 8 423 75C418-8 478-13 553 0L552 53C502 48 495 58 495 129L495 482ZM331 587L331 594L260 719L191 692L191 685L268 587Z"  horiz-adv-x="587" vert-adv-y="1000"  />

      
      <glyph glyph-name="unifd" unicode="&#xfd;" d="M518 473L518 481L439 481L351 265L278 76L277 76L198 267L102 481L19 481L19 473L240-3L212-71C179-151 142-211 50-168L39-226C197-295 252-162 306-33ZM295 579L376 682L376 689L304 718L229 586L229 579Z"  horiz-adv-x="547" vert-adv-y="1000"  />

      
      <glyph glyph-name="uniff" unicode="&#xff;" d="M518 473L518 481L439 481L351 265L278 76L277 76L198 267L102 481L19 481L19 473L240-3L212-71C179-151 142-211 50-168L39-226C197-295 252-162 306-33ZM394 602C421 602 443 620 443 647C443 675 421 693 394 693C366 693 345 675 345 647C345 620 366 602 394 602ZM159 602C187 602 209 620 209 647C209 675 187 693 159 693C132 693 110 675 110 647C110 620 132 602 159 602Z"  horiz-adv-x="547" vert-adv-y="1000"  />

      
      <glyph glyph-name="uni017E" unicode="&#x017E;" d="M424 482L45 482L45 414L303 414L30 10L30 0L422 0L422 69L155 69L424 471ZM83 697L83 691L200 576L268 576L386 689L386 697L317 697L234 618L150 697Z"  horiz-adv-x="461" vert-adv-y="1000"  />

      
      <glyph glyph-name="uni20AC" unicode="&#x20AC;" d="M47 392L121 392C118 365 118 338 121 313L47 313L47 253L130 253C165 90 297-8 469-8C520-8 568 1 615 22L588 91C553 74 514 64 471 64C340 64 247 141 215 253L415 253L436 313L203 313C200 338 199 365 203 392L460 392L482 450L218 450C252 561 346 637 472 637C507 637 538 631 567 620L592 687C553 701 512 708 470 708C305 708 171 611 131 450L47 450Z"  horiz-adv-x="657" vert-adv-y="1000"  />

      
      <glyph glyph-name="uni0100" unicode="&#x0100;" d="M528 173L610 0L696 0L696 11L373 703L335 703L9 11L9 0L96 0L178 173ZM353 572L500 245L206 245ZM199 770L496 770L496 831L199 831Z"  horiz-adv-x="706" vert-adv-y="1000"  />

      
      <glyph glyph-name="uni0101" unicode="&#x0101;" d="M400 87C400 0 438-15 518-2L517 48C458 40 461 71 461 124L462 325C463 451 360 493 250 493C186 493 122 479 75 455L88 395C129 419 183 430 238 430C306 430 386 408 386 327L386 268C338 295 279 308 224 308C124 308 34 251 37 141C40 44 121-7 210-7C283-7 365 20 400 87ZM385 163C369 91 291 59 224 59C170 59 117 83 114 144C111 213 173 248 237 248C286 248 341 234 385 209ZM112 612L409 612L409 673L112 673Z"  horiz-adv-x="544" vert-adv-y="1000"  />

      
      <glyph glyph-name="uni0102" unicode="&#x0102;" d="M528 173L610 0L696 0L696 11L373 703L335 703L9 11L9 0L96 0L178 173ZM353 572L500 245L206 245ZM181 897C201 715 505 713 525 897L457 897C438 798 269 797 249 897Z"  horiz-adv-x="706" vert-adv-y="1000"  />

      
      <glyph glyph-name="uni0103" unicode="&#x0103;" d="M400 87C400 0 438-15 518-2L517 48C458 40 461 71 461 124L462 325C463 451 360 493 250 493C186 493 122 479 75 455L88 395C129 419 183 430 238 430C306 430 386 408 386 327L386 268C338 295 279 308 224 308C124 308 34 251 37 141C40 44 121-7 210-7C283-7 365 20 400 87ZM385 163C369 91 291 59 224 59C170 59 117 83 114 144C111 213 173 248 237 248C286 248 341 234 385 209ZM102 717C119 544 398 542 416 717L353 717C337 622 184 625 164 717Z"  horiz-adv-x="544" vert-adv-y="1000"  />

      
      <glyph glyph-name="uni0104" unicode="&#x0104;" d="M353 564L500 245L206 245ZM528 173L609 2C563-34 535-85 559-139C591-214 690-202 748-168L739-116C701-138 645-155 621-107C592-51 651-12 696 0L696 11L373 703L335 703C226 471 114 243 9 11L9 0L96 0L178 173Z"  horiz-adv-x="706" vert-adv-y="1000"  />

      
      <glyph glyph-name="uni0105" unicode="&#x0105;" d="M384 158C368 86 290 54 223 54C168 54 116 83 113 144C110 211 172 251 236 251C285 251 340 237 384 212ZM399 87C402 40 406 9 439-1C399-26 371-72 389-117C417-189 507-176 561-147L553-101C521-120 467-136 444-97C419-56 469 3 517-1L516 45C457 37 460 68 460 121L461 325C462 451 359 493 249 493C185 493 121 479 74 455L87 397C128 421 182 432 237 432C305 432 385 408 385 327L385 265C337 292 278 305 223 305C123 305 33 250 36 139C39 45 120-7 209-7C282-7 364 20 399 87Z"  horiz-adv-x="543" vert-adv-y="1000"  />

      
      <glyph glyph-name="uni0106" unicode="&#x0106;" d="M50 350C50 130 209-7 404-7C544-7 679 67 719 224L638 224C601 123 510 69 403 69C242 69 135 192 135 350C135 513 243 633 404 631C505 630 591 584 634 489L715 489C673 635 539 707 404 708C207 710 50 569 50 350ZM428 773L509 876L509 883L437 912L362 780L362 773Z"  horiz-adv-x="761" vert-adv-y="1000"  />

      
      <glyph glyph-name="uni0107" unicode="&#x0107;" d="M524 335C456 575 45 541 45 243C45-56 464-92 529 162L453 162C391 1 124 36 124 243C124 446 386 481 449 335ZM310 579L388 673L388 680L319 706L246 586L246 579Z"  horiz-adv-x="567" vert-adv-y="1000"  />

      
      <glyph glyph-name="uni0108" unicode="&#x0108;" d="M50 350C50 130 209-7 404-7C544-7 679 67 719 224L638 224C601 123 510 69 403 69C242 69 135 192 135 350C135 513 243 633 404 631C505 630 591 584 634 489L715 489C673 635 539 707 404 708C207 710 50 569 50 350ZM566 776L566 783L428 916L349 916L210 784L210 776L291 776L389 867L487 776Z"  horiz-adv-x="761" vert-adv-y="1000"  />

      
      <glyph glyph-name="uni0109" unicode="&#x0109;" d="M524 335C456 575 45 541 45 243C45-56 464-92 529 162L453 162C391 1 124 36 124 243C124 446 386 481 449 335ZM462 574L462 580L336 707L263 707L136 581L136 574L210 574L300 661L390 574Z"  horiz-adv-x="567" vert-adv-y="1000"  />

      
      <glyph glyph-name="uni010A" unicode="&#x010A;" d="M50 350C50 130 209-7 404-7C544-7 679 67 719 224L638 224C601 123 510 69 403 69C242 69 135 192 135 350C135 513 243 633 404 631C505 630 591 584 634 489L715 489C673 635 539 707 404 708C207 710 50 569 50 350ZM403 774C431 774 455 793 455 820C455 851 431 869 403 869C376 869 353 851 353 820C353 793 376 774 403 774Z"  horiz-adv-x="761" vert-adv-y="1000"  />

      
      <glyph glyph-name="uni010B" unicode="&#x010B;" d="M524 335C456 575 45 541 45 243C45-56 464-92 529 162L453 162C391 1 124 36 124 243C124 446 386 481 449 335ZM296 596C321 596 342 612 342 636C342 663 321 678 296 678C272 678 251 663 251 636C251 612 272 596 296 596Z"  horiz-adv-x="567" vert-adv-y="1000"  />

      
      <glyph glyph-name="uni010C" unicode="&#x010C;" d="M50 350C50 130 209-7 404-7C544-7 679 67 719 224L638 224C601 123 510 69 403 69C242 69 135 192 135 350C135 513 243 633 404 631C505 630 591 584 634 489L715 489C673 635 539 707 404 708C207 710 50 569 50 350ZM216 914L216 907L351 775L429 775L565 905L565 914L486 914L389 823L293 914Z"  horiz-adv-x="761" vert-adv-y="1000"  />

      
      <glyph glyph-name="uni010D" unicode="&#x010D;" d="M524 335C456 575 45 541 45 243C45-56 464-92 529 162L453 162C391 1 124 36 124 243C124 446 386 481 449 335ZM126 709L126 703L259 573L335 573L470 701L470 709L391 709L297 621L202 709Z"  horiz-adv-x="567" vert-adv-y="1000"  />

      
      <glyph glyph-name="uni010E" unicode="&#x010E;" d="M93 700L93 0L341 0C555 0 681 155 681 351C681 543 555 700 341 700ZM177 76L177 623L339 623C499 623 598 505 598 350C598 193 499 76 339 76ZM141 899L141 893L273 765L348 765L481 891L481 899L404 899L310 812L216 899Z"  horiz-adv-x="732" vert-adv-y="1000"  />

      
      <glyph glyph-name="uni010F" unicode="&#x010F;" d="M441 81C441 0 486-14 564-1L563 55C494 47 506 94 506 159L506 732L428 732L428 441C256 555 45 459 45 242C45 107 123-9 267-8C344-8 408 30 441 103ZM430 221C430 134 370 61 278 61C174 61 124 146 124 242C124 419 296 470 430 369ZM662 684C662 691 663 694 660 701C655 721 636 734 613 734C585 734 564 716 564 688C564 665 579 650 599 643L578 572L628 572L656 660C659 669 661 677 662 684Z"  horiz-adv-x="601" vert-adv-y="1000"  />

      
      <glyph glyph-name="uni0110" unicode="&#x0110;" d="M15 314L95 314L95 0L343 0C557 0 683 161 683 351C683 537 557 700 343 700L95 700L95 378L15 378ZM179 76L179 314L305 314L305 378L179 378L179 623L341 623C501 623 600 499 600 350C600 199 501 76 341 76Z"  horiz-adv-x="733" vert-adv-y="1000"  />

      
      <glyph glyph-name="uni0111" unicode="&#x0111;" d="M430 218C430 131 370 59 278 59C174 59 124 144 124 240C124 417 296 468 430 367ZM441 78C441 3 487-16 564-3L563 44C494 36 506 84 506 147L506 580L589 580L589 631L506 631L506 730L428 730L428 631L324 631L324 580L428 580L428 438C256 552 45 456 45 240C45 105 123-10 267-10C344-10 412 22 441 95Z"  horiz-adv-x="599" vert-adv-y="1000"  />

      
      <glyph glyph-name="uni0112" unicode="&#x0112;" d="M500 700L93 700L93 0L511 0L511 77L177 77L177 325L489 325L489 398L177 398L177 627L500 627ZM151 777L448 777L448 838L151 838Z"  horiz-adv-x="569" vert-adv-y="1000"  />

      
      <glyph glyph-name="uni0113" unicode="&#x0113;" d="M292 493C160 493 50 406 45 254C40 90 153-10 313-10C372-10 433 3 490 30L478 89C422 66 370 54 315 54C206 54 118 122 123 233L506 233C533 392 456 492 292 493ZM292 431C378 431 445 384 440 293L126 293C139 380 204 431 292 431ZM143 609L440 609L440 670L143 670Z"  horiz-adv-x="554" vert-adv-y="1000"  />

      
      <glyph glyph-name="uni0114" unicode="&#x0114;" d="M500 700L93 700L93 0L511 0L511 77L177 77L177 325L489 325L489 398L177 398L177 627L500 627ZM121 905C138 726 440 724 459 905L392 905C373 808 208 808 188 905Z"  horiz-adv-x="569" vert-adv-y="1000"  />

      
      <glyph glyph-name="uni0115" unicode="&#x0115;" d="M292 493C160 493 50 406 45 254C40 90 153-10 313-10C372-10 433 3 490 30L478 89C422 66 370 54 315 54C206 54 118 122 123 233L506 233C533 392 456 492 292 493ZM292 431C378 431 445 384 440 293L126 293C139 380 204 431 292 431ZM124 696C144 531 413 531 433 696L372 696C353 608 203 605 186 696Z"  horiz-adv-x="554" vert-adv-y="1000"  />

      
      <glyph glyph-name="uni0116" unicode="&#x0116;" d="M500 700L93 700L93 0L511 0L511 77L177 77L177 325L489 325L489 398L177 398L177 627L500 627ZM304 781C331 781 354 799 354 826C354 855 331 873 304 873C277 873 255 855 255 826C255 799 277 781 304 781Z"  horiz-adv-x="569" vert-adv-y="1000"  />

      
      <glyph glyph-name="uni0117" unicode="&#x0117;" d="M292 493C160 493 50 406 45 254C40 90 153-10 313-10C372-10 433 3 490 30L478 89C422 66 370 54 315 54C206 54 118 122 123 233L506 233C533 392 456 492 292 493ZM292 431C378 431 445 384 440 293L126 293C139 380 204 431 292 431ZM295 599C322 599 345 616 345 641C345 668 322 684 295 684C268 684 247 668 247 641C247 616 268 599 295 599Z"  horiz-adv-x="554" vert-adv-y="1000"  />

      
      <glyph glyph-name="uni0118" unicode="&#x0118;" d="M493 700L93 700L93 0L348 0C301-28 278-88 295-137C326-226 441-207 499-173L490-121C450-142 381-162 356-112C338-75 361-23 406 0L498 0L498 77L177 77L177 325L477 325L477 398L177 398L177 626L493 626Z"  horiz-adv-x="558" vert-adv-y="1000"  />

      
      <glyph glyph-name="uni0119" unicode="&#x0119;" d="M125 285C136 377 201 431 292 431C380 431 451 382 440 285ZM292 493C160 493 50 406 45 254C40 100 141 1 285-7C308-9 331-8 355-5C324-34 306-73 322-114C352-193 451-183 511-152L502-102C464-124 403-139 377-94C357-59 388-16 422 4C445 11 467 19 490 30L478 89C431 69 372 55 317 55C206 55 124 117 124 233L506 233C533 392 456 492 292 493Z"  horiz-adv-x="554" vert-adv-y="1000"  />

      
      <glyph glyph-name="uni011A" unicode="&#x011A;" d="M500 700L93 700L93 0L511 0L511 77L177 77L177 325L489 325L489 398L177 398L177 627L500 627ZM132 898L132 892L265 762L341 762L476 890L476 898L397 898L303 810L208 898Z"  horiz-adv-x="569" vert-adv-y="1000"  />

      
      <glyph glyph-name="uni011B" unicode="&#x011B;" d="M292 493C160 493 50 406 45 254C40 90 153-10 313-10C372-10 433 3 490 30L478 89C422 66 370 54 315 54C206 54 118 122 123 233L506 233C533 392 456 492 292 493ZM292 431C378 431 445 384 440 293L126 293C139 380 204 431 292 431ZM116 702L116 696L244 569L318 569L447 694L447 702L372 702L281 616L190 702Z"  horiz-adv-x="554" vert-adv-y="1000"  />

      
      <glyph glyph-name="uni011C" unicode="&#x011C;" d="M50 351C50 134 201-9 399-9C540-9 657 57 709 186C732 242 739 304 736 368L410 368L410 297L659 297C646 145 543 68 399 68C236 68 134 188 134 351C134 510 236 634 399 634C504 634 591 601 628 500L710 500C670 646 536 710 399 710C204 710 50 568 50 351ZM579 783L579 790L441 923L362 923L223 791L223 783L304 783L402 874L500 783Z"  horiz-adv-x="777" vert-adv-y="1000"  />

      
      <glyph glyph-name="uni011D" unicode="&#x011D;" d="M427-39C427-240 225-222 93-150L80-212C261-313 503-284 503-33L503 445C443 472 379 489 311 489C162 489 46 408 46 239C46 11 244-79 427 36ZM426 104C290 3 124 54 124 240C124 363 209 423 309 423C348 423 387 415 426 400ZM480 567L480 574L351 707L277 707L147 575L147 567L222 567L314 658L406 567Z"  horiz-adv-x="576" vert-adv-y="1000"  />

      
      <glyph glyph-name="uni011E" unicode="&#x011E;" d="M50 351C50 134 201-9 399-9C540-9 657 57 709 186C732 242 739 304 736 368L410 368L410 297L659 297C646 145 543 68 399 68C236 68 134 188 134 351C134 510 236 634 399 634C504 634 591 601 628 500L710 500C670 646 536 710 399 710C204 710 50 568 50 351ZM214 910C234 723 546 721 566 910L496 910C477 809 304 808 284 910Z"  horiz-adv-x="777" vert-adv-y="1000"  />

      
      <glyph glyph-name="uni011F" unicode="&#x011F;" d="M427-39C427-240 225-222 93-150L80-212C261-313 503-284 503-33L503 445C443 472 379 489 311 489C162 489 46 408 46 239C46 11 244-79 427 36ZM426 104C290 3 124 54 124 240C124 363 209 423 309 423C348 423 387 415 426 400ZM133 705C150 530 440 528 458 705L393 705C377 609 217 612 197 705Z"  horiz-adv-x="576" vert-adv-y="1000"  />

      
      <glyph glyph-name="uni0120" unicode="&#x0120;" d="M50 351C50 134 201-9 399-9C540-9 657 57 709 186C732 242 739 304 736 368L410 368L410 297L659 297C646 145 543 68 399 68C236 68 134 188 134 351C134 510 236 634 399 634C504 634 591 601 628 500L710 500C670 646 536 710 399 710C204 710 50 568 50 351ZM403 769C431 769 455 787 455 812C455 841 431 858 403 858C376 858 353 841 353 812C353 787 376 769 403 769Z"  horiz-adv-x="777" vert-adv-y="1000"  />

      
      <glyph glyph-name="uni0121" unicode="&#x0121;" d="M427-39C427-240 225-222 93-150L80-212C261-313 503-284 503-33L503 445C443 472 379 489 311 489C162 489 46 408 46 239C46 11 244-79 427 36ZM426 104C290 3 124 54 124 240C124 363 209 423 309 423C348 423 387 415 426 400ZM298 603C323 603 345 621 345 646C345 674 323 690 298 690C273 690 252 674 252 646C252 621 273 603 298 603Z"  horiz-adv-x="576" vert-adv-y="1000"  />

      
      <glyph glyph-name="uni0122" unicode="&#x0122;" d="M457-141C458-138 457-132 456-125C449-104 431-91 408-91C380-91 359-109 359-137C359-160 374-175 394-182L372-260L421-260L451-165C454-156 456-148 457-141ZM50 351C50 134 201-9 399-9C540-9 657 57 709 186C732 242 739 304 736 368L410 368L410 297L659 297C646 145 543 68 399 68C236 68 134 188 134 351C134 510 236 634 399 634C504 634 591 601 628 500L710 500C670 646 536 710 399 710C204 710 50 568 50 351Z"  horiz-adv-x="777" vert-adv-y="1000"  />

      
      <glyph glyph-name="uni0123" unicode="&#x0123;" d="M427-39C427-240 225-222 93-150L80-212C261-313 503-284 503-33L503 445C443 472 379 489 311 489C162 489 46 408 46 239C46 11 244-79 427 36ZM426 104C290 3 124 54 124 240C124 363 209 423 309 423C348 423 387 415 426 400ZM274 620C273 615 274 611 275 604C279 587 297 574 320 574C347 574 368 591 368 616C368 637 354 652 333 657L354 723L305 723L278 642C276 635 275 628 274 620Z"  horiz-adv-x="576" vert-adv-y="1000"  />

      
      <glyph glyph-name="uni0124" unicode="&#x0124;" d="M630 0L630 700L546 700L546 405L176 405L176 700L93 700L93 0L176 0L176 328L546 328L546 0ZM553 765L553 772L415 905L336 905L197 773L197 765L278 765L376 856L474 765Z"  horiz-adv-x="723" vert-adv-y="1000"  />

      
      <glyph glyph-name="uni0125" unicode="&#x0125;" d="M514 0L514 284C514 409 452 493 320 494C245 494 198 472 155 419L155 731L76 731L76 0L155 0L155 281C155 370 213 430 300 429C384 429 434 376 434 284L434 0ZM477 770L477 777L344 909L268 909L134 778L134 770L212 770L307 860L401 770Z"  horiz-adv-x="584" vert-adv-y="1000"  />

      
      <glyph glyph-name="uni0126" unicode="&#x0126;" d="M30 524L98 524L98 0L181 0L181 312L551 312L551 0L635 0L635 524L705 524L705 582L635 582L635 700L551 700L551 582L181 582L181 700L98 700L98 582L30 582ZM181 389L181 524L551 524L551 389Z"  horiz-adv-x="733" vert-adv-y="1000"  />

      
      <glyph glyph-name="uni0127" unicode="&#x0127;" d="M513 0L513 284C513 409 451 493 320 494C243 494 181 456 154 392L154 580L248 580L248 636L154 636L154 731L76 731L76 636L10 636L10 580L76 580L76 0L154 0L154 281C154 370 214 429 299 429C383 429 433 376 433 284L433 0Z"  horiz-adv-x="583" vert-adv-y="1000"  />

      
      <glyph glyph-name="uni0128" unicode="&#x0128;" d="M242 67L242 634L355 634L355 700L45 700L45 634L158 634L158 67L37 67L37 0L363 0L363 67ZM97 755C125 804 162 799 205 772C276 729 340 758 369 829C354 836 342 843 326 851C299 802 266 807 225 832C150 878 89 850 54 777Z"  horiz-adv-x="400" vert-adv-y="1000"  />

      
      <glyph glyph-name="uni0129" unicode="&#x0129;" d="M157 481L78 481L78 0L157 0ZM17 609C41 657 73 651 111 625C173 583 230 612 255 681C242 688 232 695 217 703C194 655 165 660 129 684C63 729 10 702-20 630C-8 623 5 614 17 609Z"  horiz-adv-x="235" vert-adv-y="1000"  />

      
      <glyph glyph-name="uni012A" unicode="&#x012A;" d="M242 67L242 634L355 634L355 700L45 700L45 634L158 634L158 67L37 67L37 0L363 0L363 67ZM57 771L354 771L354 832L57 832Z"  horiz-adv-x="400" vert-adv-y="1000"  />

      
      <glyph glyph-name="uni012B" unicode="&#x012B;" d="M157 481L78 481L78 0L157 0ZM-16 613L230 613L230 675L-16 675Z"  horiz-adv-x="235" vert-adv-y="1000"  />

      
      <glyph glyph-name="uni012C" unicode="&#x012C;" d="M242 67L242 634L355 634L355 700L45 700L45 634L158 634L158 67L37 67L37 0L363 0L363 67ZM35 890C55 705 348 704 368 890L302 890C282 791 122 790 101 890Z"  horiz-adv-x="400" vert-adv-y="1000"  />

      
      <glyph glyph-name="uni012D" unicode="&#x012D;" d="M157 481L78 481L78 0L157 0ZM-38 700C-22 528 234 526 250 700L192 700C177 608 34 606 18 700Z"  horiz-adv-x="235" vert-adv-y="1000"  />

      
      <glyph glyph-name="uni012E" unicode="&#x012E;" d="M243 69L243 632L356 632L356 700L46 700L46 632L159 632L159 69L38 69L38 0L178 0C137-32 111-81 131-132C164-219 271-210 335-173L326-119C287-140 218-162 191-111C170-71 202-23 236 0L364 0L364 69Z"  horiz-adv-x="402" vert-adv-y="1000"  />

      
      <glyph glyph-name="uni012F" unicode="&#x012F;" d="M69 641C69 577 166 577 166 641C166 704 69 704 69 641ZM156 478L78 478L78 1C36-30 7-80 27-132C61-218 167-209 231-172L221-119C182-140 114-161 87-110C66-71 96-23 130 0L156 0Z"  horiz-adv-x="234" vert-adv-y="1000"  />

      
      <glyph glyph-name="uni0130" unicode="&#x0130;" d="M242 67L242 634L355 634L355 700L45 700L45 634L158 634L158 67L37 67L37 0L363 0L363 67ZM200 750C228 750 254 768 254 795C254 824 228 843 200 843C171 843 146 824 146 795C146 768 171 750 200 750Z"  horiz-adv-x="400" vert-adv-y="1000"  />

      
      <glyph glyph-name="uni0132" unicode="&#x0132;" d="M242 67L242 634L355 634L355 700L45 700L45 634L158 634L158 67L37 67L37 0L363 0L363 67ZM953 700L698 700L698 626L869 626L869 236C869 127 795 66 690 66C585 66 513 125 513 236L513 308L434 308L434 235C434 83 542-9 690-9C838-9 953 80 953 235Z"  horiz-adv-x="1039" vert-adv-y="1000"  />

      
      <glyph glyph-name="uni0133" unicode="&#x0133;" d="M68 641C68 574 167 574 167 641C167 707 68 707 68 641ZM156 478L78 478L78 0L156 0ZM312 480L312-55C312-151 297-207 190-188L188-249C333-276 389-208 389-56L390 480ZM301 641C301 574 400 574 400 641C400 707 301 707 301 641Z"  horiz-adv-x="468" vert-adv-y="1000"  />

      
      <glyph glyph-name="uni0134" unicode="&#x0134;" d="M553 700L298 700L298 626L469 626L469 236C469 127 395 66 290 66C185 66 113 125 113 236L113 308L34 308L34 235C34 83 142-9 290-9C438-9 553 80 553 235ZM589 773L589 780L459 914L385 914L254 781L254 773L330 773L422 865L515 773Z"  horiz-adv-x="639" vert-adv-y="1000"  />

      
      <glyph glyph-name="uni0135" unicode="&#x0135;" d="M78 480L78-55C78-151 63-207-43-188L-45-249C99-276 155-208 155-56L156 480ZM263 561L263 568L146 710L79 710L-38 570L-38 561L30 561L113 658L196 561Z"  horiz-adv-x="234" vert-adv-y="1000"  />

      
      <glyph glyph-name="uni0136" unicode="&#x0136;" d="M408-115C409-112 408-106 407-99C400-78 382-65 359-65C331-65 310-83 310-111C310-134 325-149 345-156L323-234L372-234L402-139C405-130 407-122 408-115ZM176 700L93 700L93 0L176 0L176 310C215 310 293 312 330 323L552 0L647 0L647 12L403 357C452 400 476 473 497 545C518 618 549 652 628 643L628 699C497 723 449 662 423 569C404 503 379 426 335 400C304 381 243 380 176 380Z"  horiz-adv-x="666" vert-adv-y="1000"  />

      
      <glyph glyph-name="uni0137" unicode="&#x0137;" d="M342-128C343-125 342-119 341-112C334-91 316-78 293-78C265-78 244-96 244-124C244-147 259-162 279-169L257-247L306-247L336-152C339-143 341-135 342-128ZM155 283L155 731L76 731L76 0L155 0L155 219L218 219C239 219 259 221 277 225L426 0L507 0L507 9L345 249C451 290 484 373 484 483L409 483C409 344 351 283 219 283Z"  horiz-adv-x="534" vert-adv-y="1000"  />

      
      <glyph glyph-name="uni0138" unicode="&#x0138;" d="M152 268L152 482L73 482L73 0L152 0L152 206L215 206C236 206 256 208 274 212L423 0L504 0L504 9L342 236C446 276 483 373 480 483L406 483C402 334 341 268 216 268Z"  horiz-adv-x="531" vert-adv-y="1000"  />

      
      <glyph glyph-name="uni0139" unicode="&#x0139;" d="M177 700L93 700L93 0L507 0L507 75L177 75ZM176 802L257 905L257 912L185 941L110 809L110 802Z"  horiz-adv-x="523" vert-adv-y="1000"  />

      
      <glyph glyph-name="uni013A" unicode="&#x013A;" d="M71 733L71 174C71 25 127-25 274-1L271 60C170 47 150 80 150 174L150 733ZM150 816L225 911L225 918L158 945L89 823L89 816Z"  horiz-adv-x="275" vert-adv-y="1000"  />

      
      <glyph glyph-name="uni013B" unicode="&#x013B;" d="M360-141C361-138 360-132 359-125C352-104 334-91 311-91C283-91 262-109 262-137C262-160 277-175 297-182L275-260L324-260L354-165C357-156 359-148 360-141ZM177 700L93 700L93 0L507 0L507 75L177 75Z"  horiz-adv-x="523" vert-adv-y="1000"  />

      
      <glyph glyph-name="uni013C" unicode="&#x013C;" d="M232-130C233-127 232-121 231-114C224-93 206-80 183-80C155-80 134-98 134-126C134-149 149-164 169-171L147-249L196-249L226-154C229-145 231-137 232-130ZM71 733L71 174C71 25 127-25 274-1L271 60C170 47 150 80 150 174L150 733Z"  horiz-adv-x="275" vert-adv-y="1000"  />

      
      <glyph glyph-name="uni013D" unicode="&#x013D;" d="M177 700L93 700L93 0L507 0L507 75L177 75ZM442 649C442 656 443 660 440 665C435 685 418 697 395 697C368 697 349 680 349 653C349 632 363 617 382 610L362 542L410 542L436 626C439 635 441 642 442 649Z"  horiz-adv-x="524" vert-adv-y="1000"  />

      
      <glyph glyph-name="uni013E" unicode="&#x013E;" d="M71 733L71 174C71 25 127-25 274-1L271 60C170 47 150 80 150 174L150 733ZM316 679C316 686 317 688 314 695C310 714 291 726 270 726C243 726 223 708 223 683C223 662 237 647 256 640L236 573L284 573L311 656C314 664 315 672 316 679Z"  horiz-adv-x="275" vert-adv-y="1000"  />

      
      <glyph glyph-name="uni013F" unicode="&#x013F;" d="M177 700L93 700L93 0L507 0L507 75L177 75ZM359 331C386 331 407 350 407 378C407 407 386 426 359 426C334 426 312 407 312 378C312 350 334 331 359 331Z"  horiz-adv-x="523" vert-adv-y="1000"  />

      
      <glyph glyph-name="uni0140" unicode="&#x0140;" d="M71 733L71 174C71 25 127-25 274-1L271 60C170 47 150 80 150 174L150 733ZM282 330C306 330 327 348 327 376C327 405 306 424 282 424C257 424 236 405 236 376C236 348 257 330 282 330Z"  horiz-adv-x="333" vert-adv-y="1000"  />

      
      <glyph glyph-name="uni0143" unicode="&#x0143;" d="M626 0L653 0L653 701L569 701L569 373L578 172L122 702L93 702L93 0L176 0L176 337L169 529ZM385 756L466 859L466 866L394 895L319 763L319 756Z"  horiz-adv-x="746" vert-adv-y="1000"  />

      
      <glyph glyph-name="uni0144" unicode="&#x0144;" d="M528 0L528 286C528 404 462 492 335 492C267 492 208 475 165 410C165 503 91 491 35 483L36 421C87 426 92 409 92 344L92 0L170 0L170 289C170 370 232 427 314 427C393 427 449 373 449 286L449 0ZM315 584L390 679L390 686L323 713L254 591L254 584Z"  horiz-adv-x="598" vert-adv-y="1000"  />

      
      <glyph glyph-name="uni0145" unicode="&#x0145;" d="M444-129C445-126 444-120 443-113C436-92 418-79 395-79C367-79 346-97 346-125C346-148 361-163 381-170L359-248L408-248L438-153C441-144 443-136 444-129ZM626 0L653 0L653 701L569 701L569 373L578 172L122 702L93 702L93 0L176 0L176 337L169 529Z"  horiz-adv-x="746" vert-adv-y="1000"  />

      
      <glyph glyph-name="uni0146" unicode="&#x0146;" d="M372-137C373-134 372-128 371-121C364-100 346-87 323-87C295-87 274-105 274-133C274-156 289-171 309-178L287-256L336-256L366-161C369-152 371-144 372-137ZM528 0L528 286C528 404 462 492 335 492C267 492 208 475 165 410C165 503 91 491 35 483L36 421C87 426 92 409 92 344L92 0L170 0L170 289C170 370 232 427 314 427C393 427 449 373 449 286L449 0Z"  horiz-adv-x="598" vert-adv-y="1000"  />

      
      <glyph glyph-name="uni0147" unicode="&#x0147;" d="M626 0L653 0L653 701L569 701L569 373L578 172L122 702L93 702L93 0L176 0L176 337L169 529ZM188 891L188 884L326 750L405 750L544 882L544 891L463 891L365 799L267 891Z"  horiz-adv-x="746" vert-adv-y="1000"  />

      
      <glyph glyph-name="uni0148" unicode="&#x0148;" d="M528 0L528 286C528 404 462 492 335 492C267 492 208 475 165 410C165 503 91 491 35 483L36 421C87 426 92 409 92 344L92 0L170 0L170 289C170 370 232 427 314 427C393 427 449 373 449 286L449 0ZM120 719L120 712L258 578L337 578L476 710L476 719L395 719L297 627L199 719Z"  horiz-adv-x="598" vert-adv-y="1000"  />

      
      <glyph glyph-name="uni0149" unicode="&#x0149;" d="M528 0L528 286C528 404 462 492 335 492C267 492 208 475 165 410C165 503 91 491 35 483L36 421C87 426 92 409 92 344L92 0L170 0L170 289C170 370 232 427 314 427C393 427 449 373 449 286L449 0Z"  horiz-adv-x="598" vert-adv-y="1000"  />

      
      <glyph glyph-name="uni014A" unicode="&#x014A;" d="M458-186C603-213 653-143 653 3L653 701L569 701L569 168L122 702L93 702L93 0L176 0L176 541L582 45L582 4C582-90 567-145 461-127Z"  horiz-adv-x="746" vert-adv-y="1000"  />

      
      <glyph glyph-name="uni014B" unicode="&#x014B;" d="M524 286C524 404 457 492 332 492C261 492 194 458 165 393L165 413C165 488 98 495 31 484L33 437C95 442 89 419 89 345L89 0L167 0L167 282C167 371 229 427 311 427C390 427 446 373 446 286L446-5C446-97 432-160 325-141L322-197C467-224 524-153 524-6Z"  horiz-adv-x="594" vert-adv-y="1000"  />

      
      <glyph glyph-name="uni014C" unicode="&#x014C;" d="M760 350C760 572 601 712 405 712C209 712 50 574 50 350C50 127 207-10 404-10C615-10 760 138 760 350ZM134 350C134 522 253 636 405 636C560 636 676 520 676 350C676 180 558 66 404 66C251 66 134 180 134 350ZM253 793L550 793L550 854L253 854Z"  horiz-adv-x="810" vert-adv-y="1000"  />

      
      <glyph glyph-name="uni014D" unicode="&#x014D;" d="M553 242C553 577 45 577 45 242C45-92 553-90 553 242ZM124 242C124 487 475 487 475 242C475-3 124-3 124 242ZM148 598L445 598L445 659L148 659Z"  horiz-adv-x="598" vert-adv-y="1000"  />

      
      <glyph glyph-name="uni014E" unicode="&#x014E;" d="M760 350C760 572 601 712 405 712C209 712 50 574 50 350C50 127 207-10 404-10C615-10 760 138 760 350ZM134 350C134 522 253 636 405 636C560 636 676 520 676 350C676 180 558 66 404 66C251 66 134 180 134 350ZM218 910C238 723 550 721 570 910L500 910C481 809 308 808 288 910Z"  horiz-adv-x="810" vert-adv-y="1000"  />

      
      <glyph glyph-name="uni014F" unicode="&#x014F;" d="M553 242C553 577 45 577 45 242C45-92 553-90 553 242ZM124 242C124 487 475 487 475 242C475-3 124-3 124 242ZM132 708C152 532 444 530 464 708L398 708C378 613 219 612 198 708Z"  horiz-adv-x="598" vert-adv-y="1000"  />

      
      <glyph glyph-name="uni0150" unicode="&#x0150;" d="M271 769L335 769L402 878L402 885L330 903L271 776ZM455 769L519 769L585 868L585 876L514 897L455 776ZM760 350C760 572 601 712 405 712C209 712 50 574 50 350C50 127 207-10 404-10C615-10 760 138 760 350ZM134 350C134 522 253 636 405 636C560 636 676 520 676 350C676 180 558 66 404 66C251 66 134 180 134 350Z"  horiz-adv-x="810" vert-adv-y="1000"  />

      
      <glyph glyph-name="uni0151" unicode="&#x0151;" d="M177 578L241 578L308 687L308 694L236 712L177 585ZM361 578L425 578L491 677L491 685L420 706L361 585ZM553 242C553 577 45 577 45 242C45-92 553-90 553 242ZM124 242C124 487 475 487 475 242C475-3 124-3 124 242Z"  horiz-adv-x="598" vert-adv-y="1000"  />

      
      <glyph glyph-name="uni0154" unicode="&#x0154;" d="M444 268C542 292 611 368 611 476C611 603 516 701 372 701L93 701L93 0L177 0L177 257L360 257L554 0L642 0L642 12ZM176 326L176 627L372 627C463 627 530 567 530 477C530 386 461 326 372 326ZM332 769L413 872L413 879L341 908L266 776L266 769Z"  horiz-adv-x="672" vert-adv-y="1000"  />

      
      <glyph glyph-name="uni0155" unicode="&#x0155;" d="M163 418C160 492 107 500 32 487L33 435C90 440 91 413 91 369L91 0L168 0L168 300C168 376 232 428 301 428C338 428 372 416 403 396L422 462C389 486 351 498 309 498C245 498 190 477 163 418ZM229 585L306 683L306 690L237 718L166 591L166 585Z"  horiz-adv-x="433" vert-adv-y="1000"  />

      
      <glyph glyph-name="uni0156" unicode="&#x0156;" d="M404-130C405-127 404-121 403-114C396-93 378-80 355-80C327-80 306-98 306-126C306-149 321-164 341-171L319-249L368-249L398-154C401-145 403-137 404-130ZM444 268C542 292 611 368 611 476C611 603 516 701 372 701L93 701L93 0L177 0L177 257L360 257L554 0L642 0L642 12ZM176 326L176 627L372 627C463 627 530 567 530 477C530 386 461 326 372 326Z"  horiz-adv-x="672" vert-adv-y="1000"  />

      
      <glyph glyph-name="uni0157" unicode="&#x0157;" d="M185-141C186-138 185-132 184-125C177-104 159-91 136-91C108-91 87-109 87-137C87-160 102-175 122-182L100-260L149-260L179-165C182-156 184-148 185-141ZM163 418C160 492 107 500 32 487L33 435C90 440 91 413 91 369L91 0L168 0L168 300C168 376 232 428 301 428C338 428 372 416 403 396L422 462C389 486 351 498 309 498C245 498 190 477 163 418Z"  horiz-adv-x="433" vert-adv-y="1000"  />

      
      <glyph glyph-name="uni0158" unicode="&#x0158;" d="M444 268C542 292 611 368 611 476C611 603 516 701 372 701L93 701L93 0L177 0L177 257L360 257L554 0L642 0L642 12ZM176 326L176 627L372 627C463 627 530 567 530 477C530 386 461 326 372 326ZM133 906L133 899L271 765L350 765L489 897L489 906L408 906L310 814L212 906Z"  horiz-adv-x="672" vert-adv-y="1000"  />

      
      <glyph glyph-name="uni0159" unicode="&#x0159;" d="M163 418C160 492 107 500 32 487L33 435C90 440 91 413 91 369L91 0L168 0L168 300C168 376 232 428 301 428C338 428 372 416 403 396L422 462C389 486 351 498 309 498C245 498 190 477 163 418ZM54 710L54 704L183 577L257 577L387 702L387 710L311 710L219 623L128 710Z"  horiz-adv-x="433" vert-adv-y="1000"  />

      
      <glyph glyph-name="uni015A" unicode="&#x015A;" d="M47 191C52 47 198-14 328-11C455-8 599 45 599 195C599 350 469 374 330 391C245 401 144 406 144 510C144 602 240 636 317 637C397 639 491 609 499 520L577 520C572 656 436 713 315 712C192 710 61 647 61 509C61 369 189 338 316 323C411 312 519 308 517 195C516 93 411 62 327 61C241 59 133 97 128 191ZM341 774L422 877L422 884L350 913L275 781L275 774Z"  horiz-adv-x="646" vert-adv-y="1000"  />

      
      <glyph glyph-name="uni015B" unicode="&#x015B;" d="M40 136C48 26 149-12 254-11C366-9 465 39 466 138C468 252 363 265 262 279C173 291 129 304 127 351C125 407 192 430 253 430C316 430 378 406 378 354L453 354C456 447 353 492 253 492C153 492 50 449 53 349C56 249 160 230 255 218C344 206 391 193 390 138C388 79 321 51 254 51C189 51 121 75 116 136ZM277 582L354 680L354 686L285 714L214 588L214 582Z"  horiz-adv-x="509" vert-adv-y="1000"  />

      
      <glyph glyph-name="uni015C" unicode="&#x015C;" d="M47 191C52 47 198-14 328-11C455-8 599 45 599 195C599 350 469 374 330 391C245 401 144 406 144 510C144 602 240 636 317 637C397 639 491 609 499 520L577 520C572 656 436 713 315 712C192 710 61 647 61 509C61 369 189 338 316 323C411 312 519 308 517 195C516 93 411 62 327 61C241 59 133 97 128 191ZM498 768L498 775L360 908L281 908L142 776L142 768L223 768L321 859L419 768Z"  horiz-adv-x="646" vert-adv-y="1000"  />

      
      <glyph glyph-name="uni015D" unicode="&#x015D;" d="M40 136C48 26 149-12 254-11C366-9 465 39 466 138C468 252 363 265 262 279C173 291 129 304 127 351C125 407 192 430 253 430C316 430 378 406 378 354L453 354C456 447 353 492 253 492C153 492 50 449 53 349C56 249 160 230 255 218C344 206 391 193 390 138C388 79 321 51 254 51C189 51 121 75 116 136ZM414 580L414 587L291 711L220 711L95 587L95 580L168 580L256 665L344 580Z"  horiz-adv-x="509" vert-adv-y="1000"  />

      
      <glyph glyph-name="uni015E" unicode="&#x015E;" d="M47 191C52 54 185-5 307-10L286-93C325-90 382-106 366-155C358-203 266-194 229-165L225-212C286-257 407-260 432-177C450-118 414-76 350-73L366-7C477 3 599 68 599 195C599 350 469 374 330 391C245 401 144 414 144 510C144 602 240 636 317 637C397 639 492 606 500 517L578 517C573 654 435 713 315 712C192 710 61 647 61 509C61 369 189 338 316 323C411 312 519 301 517 195C516 103 411 62 327 61C241 59 133 97 128 191Z"  horiz-adv-x="646" vert-adv-y="1000"  />

      
      <glyph glyph-name="uni015F" unicode="&#x015F;" d="M42 136C50 32 137-5 235-10L222-72C257-69 314-88 299-134C287-174 202-167 170-138L166-181C223-224 332-223 356-149C373-94 338-57 281-54L291-9C386 1 467 51 468 138C470 252 365 265 264 279C175 291 131 304 129 351C127 407 194 430 255 430C318 430 380 406 380 354L455 354C458 447 355 492 255 492C155 492 52 449 55 349C58 249 162 230 257 218C346 206 393 193 392 138C390 79 323 51 256 51C191 51 123 75 118 136Z"  horiz-adv-x="511" vert-adv-y="1000"  />

      
      <glyph glyph-name="uni0162" unicode="&#x0162;" d="M224 625L224 0L234 0L213-81C251-78 310-94 294-143C278-194 191-185 156-153L152-200C214-246 334-247 360-165C379-106 343-64 279-61L294 0L305 0L305 625L511 625L511 700L18 700L18 625Z"  horiz-adv-x="529" vert-adv-y="1000"  />

      
      <glyph glyph-name="uni0163" unicode="&#x0163;" d="M205 630L135 630L127 480L24 480L24 428L127 423L127 190C127 79 165 16 234-2L213-81C251-78 310-94 294-143C278-194 191-185 156-153L152-200C214-246 334-247 360-165C379-106 343-64 279-61L292-9C325-10 363-6 406 8L397 70C281 27 205 64 205 192L205 423L382 423L382 480L205 480Z"  horiz-adv-x="421" vert-adv-y="1000"  />

      
      <glyph glyph-name="uni0164" unicode="&#x0164;" d="M234 625L234 0L315 0L315 625L531 625L531 700L18 700L18 625ZM94 908L94 901L232 767L311 767L450 899L450 908L369 908L271 816L173 908Z"  horiz-adv-x="549" vert-adv-y="1000"  />

      
      <glyph glyph-name="uni0165" unicode="&#x0165;" d="M204 630L139 630L131 480L23 480L23 428L126 423L126 185C126 3 240-43 405 9L396 72C280 29 204 64 204 187L204 423L331 423L331 480L204 480ZM420 588C420 595 420 597 419 604C414 623 397 635 374 635C347 635 328 619 328 592C328 569 342 555 361 550L342 487L389 487L415 566C418 574 420 581 420 588Z"  horiz-adv-x="409" vert-adv-y="1000"  />

      
      <glyph glyph-name="uni0166" unicode="&#x0166;" d="M117 282L234 282L234 0L315 0L315 282L429 282L429 346L315 346L315 625L521 625L521 700L28 700L28 625L234 625L234 346L117 346Z"  horiz-adv-x="549" vert-adv-y="1000"  />

      
      </font>
</defs>
</svg>
