<svg width="24" height="25" viewBox="0 0 24 25" fill="none" xmlns="http://www.w3.org/2000/svg">
<path d="M11.9972 8.60228C9.97738 8.60228 8.32902 10.2506 8.32902 12.2705C8.32902 14.2904 9.97738 15.9387 11.9972 15.9387C14.0171 15.9387 15.6655 14.2904 15.6655 12.2705C15.6655 10.2506 14.0171 8.60228 11.9972 8.60228ZM22.9992 12.2705C22.9992 10.7515 23.0129 9.24621 22.9276 7.72994C22.8423 5.96875 22.4406 4.40569 21.1527 3.11782C19.8621 1.8272 18.3018 1.42818 16.5406 1.34287C15.0215 1.25757 13.5163 1.27133 12 1.27133C10.481 1.27133 8.97571 1.25757 7.45943 1.34287C5.69824 1.42818 4.13519 1.82995 2.84732 3.11782C1.55669 4.40845 1.15767 5.96875 1.07237 7.72994C0.987059 9.24897 1.00082 10.7542 1.00082 12.2705C1.00082 13.7868 0.987059 15.2948 1.07237 16.8111C1.15767 18.5723 1.55945 20.1353 2.84732 21.4232C4.13794 22.7138 5.69824 23.1128 7.45943 23.1981C8.97846 23.2834 10.4837 23.2697 12 23.2697C13.519 23.2697 15.0243 23.2834 16.5406 23.1981C18.3018 23.1128 19.8648 22.7111 21.1527 21.4232C22.4433 20.1326 22.8423 18.5723 22.9276 16.8111C23.0157 15.2948 22.9992 13.7895 22.9992 12.2705ZM11.9972 17.9146C8.87389 17.9146 6.35318 15.3939 6.35318 12.2705C6.35318 9.14715 8.87389 6.62644 11.9972 6.62644C15.1206 6.62644 17.6413 9.14715 17.6413 12.2705C17.6413 15.3939 15.1206 17.9146 11.9972 17.9146ZM17.8725 7.71343C17.1432 7.71343 16.5543 7.12453 16.5543 6.39529C16.5543 5.66605 17.1432 5.07715 17.8725 5.07715C18.6017 5.07715 19.1906 5.66605 19.1906 6.39529C19.1908 6.56845 19.1569 6.73995 19.0907 6.89998C19.0245 7.06 18.9275 7.2054 18.805 7.32784C18.6826 7.45028 18.5372 7.54737 18.3772 7.61353C18.2171 7.6797 18.0456 7.71365 17.8725 7.71343Z" fill="#909CB5"/>
</svg>
