<svg width="40" height="41" viewBox="0 0 40 41" fill="none" xmlns="http://www.w3.org/2000/svg">
<path d="M40 20.2706C40 13.7545 34.7097 8.39966 28.129 8.39966C25.2903 8.39966 22.7097 9.3674 20.6452 11.0448C22.1935 12.5287 23.4194 14.3997 24 16.5287H23.0323C22.3871 14.6577 21.3548 12.9803 19.9355 11.6255C18.5161 12.9803 17.4839 14.6577 16.8387 16.5287H15.871C16.5161 14.3997 17.6774 12.5287 19.2258 11.0448C17.1613 9.3674 14.6452 8.39966 11.8065 8.39966C5.29032 8.39966 0 13.7545 0 20.2706C0 26.7868 5.29032 32.1416 11.871 32.1416C14.7097 32.1416 17.2903 31.1093 19.2903 29.4964C17.7419 28.0126 16.5806 26.1416 15.9355 24.0126H16.9032C17.5484 25.8835 18.5806 27.561 20 28.9158C21.4194 27.561 22.5161 25.8835 23.0968 24.0126H24.0645C23.4194 26.1416 22.2581 28.0126 20.7097 29.4964C22.7742 31.1739 25.3548 32.1416 28.1935 32.1416C34.7097 32.1416 40 26.7868 40 20.2706Z" fill="#858FA4"/>
<path d="M31.2904 23.0448L32.1291 18.6577H33.1614L33.2904 19.1093C33.4839 18.9158 33.8065 18.6577 34.4517 18.6577L34.1291 19.819C33.8065 19.819 33.2904 19.7545 32.9033 21.0448L32.5162 23.0448H31.2904Z" fill="#1A1A25"/>
<path d="M15.4839 17.5608H16.6452L16.3871 18.7221H17.0323L16.8387 19.6253H16.2581L15.9355 21.3672C15.871 21.6898 15.9355 22.0124 16.5807 21.8834L16.4516 22.8511C16.1936 23.0447 15.871 23.0447 15.5484 23.0447C15.2903 23.0447 14.3871 22.8511 14.5807 21.6898L15.4839 17.5608Z" fill="#1A1A25"/>
<path d="M20.6455 21.1093C20.7746 20.3996 21.0972 18.6577 19.0326 18.6577C17.0972 18.6577 16.8391 20.5932 16.8391 20.8513C16.7746 21.1093 16.7746 23.0448 18.8391 23.0448C19.3552 23.0448 20.0649 22.9803 20.3875 22.8513L20.581 21.948C20.3875 22.0126 19.7423 22.0771 19.2262 22.0771C18.7746 22.0771 18.0004 22.0771 18.1294 21.1093H20.6455Z" fill="#1A1A25"/>
<path d="M14.3229 19.6898L14.5809 18.7866C14.0003 18.593 13.5487 18.593 13.4196 18.593C13.2261 18.593 11.8067 18.593 11.6132 19.6253C11.4196 20.464 11.7422 20.7866 12.0003 20.9156C12.4519 21.1091 12.7099 21.3027 12.968 21.4317C13.2906 21.5608 13.2261 22.0769 12.839 22.0769C12.6454 22.0769 11.8712 22.1414 11.2906 21.9479L11.097 22.8511C11.6777 22.9801 12.0648 22.9801 12.5164 22.9801C12.839 22.9801 14.2583 23.0446 14.4519 21.7543C14.5809 21.1091 14.2583 20.8511 14.0648 20.6575C13.8067 20.5285 13.4841 20.2704 13.2261 20.2059C12.968 20.0769 12.7745 19.6898 13.2261 19.5608C13.4196 19.6253 14.0003 19.6253 14.3229 19.6898Z" fill="#1A1A25"/>
<path d="M6.58086 23.0447L7.61312 17.7544H5.61312L4.19376 20.9802L3.9357 17.7544H2.06473L1.03247 23.0447H2.19376L2.96795 19.2383L3.29054 23.0447H4.38731L6.06473 19.3028L5.35505 23.0447H6.58086Z" fill="#1A1A25"/>
<path d="M7.93566 18.7866L7.74211 19.7543C8.06469 19.7543 8.83889 19.6253 9.22598 19.6253C9.61308 19.6253 10.1292 19.5608 9.93566 20.2059C9.61308 20.2059 7.48405 19.8834 7.16147 21.7543C7.03244 22.6576 7.80663 23.1092 8.38727 23.1092C8.96792 23.1092 9.16147 22.9801 9.35502 22.8511L9.48405 23.1092H10.5808L11.0324 20.7221C11.1615 20.1414 11.355 18.7221 9.35502 18.7221C9.09695 18.6575 8.70986 18.6575 7.93566 18.7866Z" fill="#1A1A25"/>
<path d="M27.226 18.9802C26.9035 18.7866 26.7099 18.7866 26.3228 18.7866C25.9357 18.7866 25.0325 19.1737 24.9035 20.206C24.7099 21.4963 25.5486 22.077 26.7744 21.6899L27.097 22.7867C26.7099 22.9802 26.3228 23.0447 25.6777 23.0447C24.4519 23.0447 23.097 21.9479 23.6777 19.6899C24.1293 18.077 25.5486 17.4318 26.3873 17.4963C27.3551 17.5608 27.7422 17.8834 28.0002 18.206L27.226 18.9802Z" fill="#1A1A25"/>
<path d="M37.3553 19.1738C37.0972 18.9802 36.9682 18.6576 36.4521 18.6576C35.8069 18.6576 34.7746 18.5286 34.194 20.5286C33.8069 21.8834 34.5811 23.0447 35.4198 23.0447C35.8069 23.0447 36.194 22.8512 36.4521 22.7221L36.5811 23.0447H37.8714L38.9037 17.4963H37.6779L37.3553 19.1738Z" fill="#1A1A25"/>
<path d="M28.0652 18.7866L27.8716 19.7543C28.1942 19.7543 28.9684 19.6253 29.3555 19.6253C29.7426 19.6253 30.1942 19.5608 30.0652 20.2059C29.7426 20.2059 27.6136 19.8834 27.291 21.7543C27.162 22.6576 27.9361 23.1092 28.5168 23.1092C29.0974 23.1092 29.291 22.9801 29.4845 22.8511L29.6136 23.1092H30.7103L31.162 20.7221C31.291 20.1414 31.4845 18.7221 29.4845 18.7221C29.291 18.6575 28.8394 18.6575 28.0652 18.7866Z" fill="#1A1A25"/>
<path d="M18.129 20.2705H19.6129C19.6774 19.8189 19.5484 19.4963 19.0968 19.4963C18.5806 19.4963 18.2581 19.7544 18.129 20.2705Z" fill="#858FA4"/>
<path d="M9.74217 21.1092C9.54862 21.1092 9.09701 20.9801 8.70991 21.2382C8.32281 21.4963 8.19378 21.9479 8.64539 22.0769C9.03249 22.2059 9.54862 21.9479 9.67765 21.5608L9.74217 21.1092Z" fill="#858FA4"/>
<path d="M36.9679 20.9802C37.0969 20.5931 37.0324 20.077 36.9034 19.8834C36.5163 19.3673 35.6776 19.7544 35.4195 20.7221C35.226 21.3673 35.6131 21.8189 36.0002 21.8189C36.4518 21.8189 36.7098 21.4963 36.9679 20.9802Z" fill="#858FA4"/>
<path d="M29.9355 21.1092C29.742 21.1092 29.2904 20.9801 28.9033 21.2382C28.5162 21.4963 28.3871 21.9479 28.8388 22.0769C29.2258 22.2059 29.8065 21.9479 29.871 21.5608L29.9355 21.1092Z" fill="#858FA4"/>
<path d="M20.6451 23.0448L21.4839 18.7222H22.5161L22.6451 19.1738C22.8387 18.9802 23.1613 18.7222 23.8064 18.7222L23.4839 19.8835C23.2258 19.8835 22.6451 19.8189 22.258 21.1093L21.8709 23.1093H20.6451" fill="#1A1A25"/>
<path d="M11.8709 8.39966C6.64514 8.39966 2.19353 11.819 0.645142 16.5287H16C16.6451 14.3997 17.8064 12.5287 19.3548 11.0448C17.2258 9.43192 14.6451 8.39966 11.8709 8.39966Z" fill="#858FA4"/>
<path d="M20.0002 11.6899C18.5809 13.0448 17.5486 14.6577 16.9034 16.5932H23.097C22.4518 14.7222 21.4196 13.0448 20.0002 11.6899Z" fill="#858FA4"/>
<path d="M28.129 8.39966C25.2903 8.39966 22.7097 9.3674 20.6451 11.0448C22.1935 12.5287 23.3548 14.3997 24 16.5287H39.3548C37.8709 11.819 33.4193 8.39966 28.129 8.39966Z" fill="#858FA4"/>
</svg>
