<svg width="55" height="21" viewBox="0 0 55 21" fill="none" xmlns="http://www.w3.org/2000/svg">
<path d="M10.5428 4.31375C10.3503 3.9275 10.0457 3.60893 9.66761 3.36971C9.27319 3.12815 8.80759 2.95895 8.27547 2.8586C7.73402 2.76057 7.10855 2.71623 6.38389 2.70923L3.03831 2.71156C2.69057 2.71623 2.34983 2.98696 2.26814 3.32303L0.017144 13.1275C-0.0645408 13.4589 0.153674 13.7367 0.501418 13.7367H2.10361C2.45135 13.7367 2.79559 13.4671 2.87261 13.1275L3.42223 10.747C3.49575 10.4156 3.83882 10.139 4.19007 10.139H4.64867C6.60794 10.1367 8.12494 9.73645 9.21485 8.93477C10.3106 8.13193 10.8509 7.07119 10.8509 5.75724C10.8497 5.18194 10.7552 4.69884 10.5428 4.31375ZM7.08754 7.51696C6.60327 7.87171 5.92995 8.04908 5.06176 8.04908H4.66967C4.32076 8.04908 4.10722 7.77368 4.18307 7.43761L4.66501 5.35581C4.73269 5.02207 5.08393 4.74551 5.42818 4.74785L5.95329 4.74435C6.56593 4.74435 7.03386 4.85054 7.3466 5.05591C7.65584 5.25896 7.81104 5.5822 7.8087 6.01046C7.81804 6.6616 7.56948 7.16222 7.08754 7.51696Z" fill="#858FA4"/>
<path d="M18.2692 5.71546C17.6648 5.37472 16.7102 5.20435 15.4056 5.20435C14.7603 5.20435 14.1173 5.25452 13.4674 5.35488C12.9877 5.4284 12.9411 5.4424 12.6458 5.50658C12.0367 5.63961 11.941 6.24758 11.941 6.24758L11.745 7.05392C11.6341 7.56854 11.9305 7.5487 12.0542 7.50552C12.3203 7.42617 12.4685 7.34449 13.0123 7.22313C13.5315 7.10527 14.0788 7.01658 14.5129 7.02241C15.1536 7.02241 15.6437 7.0901 15.9704 7.22779C16.2925 7.36782 16.4535 7.60821 16.4535 7.95596L16.4255 8.18234L16.1945 8.3247C15.2854 8.38188 14.6284 8.4659 13.8314 8.58143C13.0519 8.68995 12.3681 8.88016 11.7998 9.14038C11.1895 9.40878 10.7368 9.76936 10.4205 10.228C10.1148 10.6889 9.96191 11.2479 9.96191 11.9037C9.96191 12.521 10.1836 13.0309 10.6142 13.4253C11.0472 13.8128 11.6189 14.0018 12.3028 14.0018C12.7357 13.9995 13.0706 13.9656 13.3087 13.9084L14.0847 13.6412L14.7416 13.2771L15.3461 12.878L15.3543 12.8897L15.2936 13.1464L15.2901 13.1569V13.1593C15.2247 13.472 15.4138 13.7287 15.7184 13.7591L15.7242 13.7661H15.7522H16.981H17.212L17.233 13.7567C17.5528 13.7194 17.8527 13.4627 17.9227 13.1569L19.0908 8.10065L19.1514 7.68873L19.1795 7.30248C19.1841 6.58599 18.8749 6.05503 18.2692 5.71546ZM15.6857 11.4007L15.436 11.7298L14.8058 12.0554C14.5094 12.1756 14.2282 12.2362 13.968 12.2362C13.5735 12.2362 13.2643 12.1791 13.0554 12.0624L12.7462 11.4614C12.7462 11.1358 12.8209 10.8779 12.9807 10.6796L13.6599 10.2175C13.9505 10.1194 14.3052 10.0366 14.716 9.9794C15.0824 9.93389 15.8059 9.85104 15.9004 9.84871L16.0112 10.0436C15.9891 10.1544 15.7837 11.0133 15.6857 11.4007Z" fill="#858FA4"/>
<path d="M47.3701 5.72224C46.7621 5.3815 45.8087 5.20996 44.5076 5.20996C43.8623 5.20996 43.2182 5.26014 42.5705 5.36399C42.0897 5.43401 42.0419 5.44918 41.7455 5.5122C41.1375 5.64406 41.043 6.25436 41.043 6.25436L40.847 7.05954C40.7373 7.57415 41.0267 7.55081 41.162 7.51114C41.4293 7.43179 41.5728 7.3536 42.1119 7.22757C42.6289 7.11088 43.1808 7.02453 43.6161 7.02686C44.2544 7.02686 44.7445 7.09571 45.0701 7.23341C45.3945 7.37344 45.5532 7.61616 45.5532 7.9604L45.5287 8.18562L45.3 8.33149C44.3816 8.38633 43.7234 8.47035 42.9346 8.58587C42.1574 8.6944 41.4713 8.88344 40.9018 9.14483C40.2939 9.41439 39.8352 9.77497 39.5225 10.2347C39.2133 10.6957 39.0627 11.2535 39.0627 11.9034C39.0627 12.5254 39.2821 13.0354 39.7186 13.4274C40.1538 13.8137 40.7198 14.0074 41.4036 14.0074C41.8342 14.0027 42.1691 13.9747 42.4083 13.9129L43.182 13.6492L43.8448 13.2851L44.4446 12.8813L44.4551 12.8942L44.4003 13.1532L44.3944 13.1579L44.3968 13.1626C44.3244 13.4753 44.5146 13.7343 44.8227 13.7624L44.825 13.7682H44.853C45.0549 13.7682 45.7527 13.7682 46.0853 13.7682H46.3117L46.3362 13.76C46.6524 13.7215 46.9512 13.4648 47.0177 13.1556L48.1893 8.10627L48.2511 7.69201L48.285 7.30459C48.2861 6.59043 47.9804 6.06182 47.3701 5.72224ZM44.7923 11.4075L44.5321 11.7401L43.9078 12.0633C43.6114 12.1823 43.329 12.2442 43.0735 12.2442C42.6662 12.2442 42.3651 12.1858 42.1621 12.0691L41.8494 11.4705C41.8494 11.1438 41.9252 10.8882 42.0781 10.6863C42.2333 10.4961 42.4702 10.3398 42.7642 10.2254C43.0513 10.1274 43.406 10.048 43.8191 9.98852C44.1832 9.94301 44.9044 9.85782 44.9977 9.85666L45.1109 10.0515C45.0946 10.1624 44.888 11.0177 44.7923 11.4075Z" fill="#858FA4"/>
<path d="M39.6395 4.35007C39.4388 3.96149 39.1377 3.64758 38.7573 3.40253C38.3676 3.15981 37.9055 2.98944 37.3652 2.89142C36.8342 2.7969 36.2006 2.74555 35.4806 2.74438L32.1303 2.74672C31.7814 2.75255 31.4465 3.02328 31.366 3.35585L29.1127 13.165C29.031 13.4976 29.255 13.773 29.5958 13.773L31.2003 13.7707C31.541 13.773 31.89 13.4999 31.9705 13.1639L32.5131 10.7822C32.5924 10.4508 32.9367 10.1719 33.2833 10.1742H33.7419C35.7035 10.1742 37.224 9.77044 38.3185 8.9711C39.4003 8.16242 39.9476 7.10402 39.9476 5.78889C39.9417 5.21593 39.8426 4.73166 39.6395 4.35007ZM36.1842 7.55795C35.7011 7.90569 35.0267 8.08307 34.1631 8.08307H33.764C33.4198 8.08657 33.1969 7.80651 33.2739 7.47277L33.7594 5.39447C33.8306 5.0619 34.1783 4.783 34.5249 4.7865L35.0442 4.783C35.6603 4.7865 36.1224 4.88802 36.4375 5.0934C36.7514 5.29878 36.8996 5.62085 36.9031 6.04795C36.9066 6.69909 36.665 7.20087 36.1842 7.55795Z" fill="#858FA4"/>
<path d="M53.3775 3.43398C53.4511 3.09907 53.241 2.82718 52.8968 2.83185H51.4614C51.1674 2.83185 50.9025 3.05006 50.773 3.31845L50.6936 3.44215L50.6213 3.75955L48.6153 12.8779L48.55 13.158L48.5523 13.165C48.4858 13.4649 48.6702 13.6912 48.9549 13.7344L48.9794 13.7683H50.4696C50.7613 13.7683 51.0355 13.5466 51.1604 13.2735L51.2374 13.1568L53.3822 3.43515L53.3775 3.43398Z" fill="#858FA4"/>
<path d="M29.1562 5.32679C28.7769 5.33146 27.2354 5.32679 27.2354 5.32679C26.89 5.32679 26.4466 5.60569 26.2272 5.93826C26.2272 5.93826 23.933 9.87546 23.7101 10.2711L23.4441 10.2676L22.7299 5.9651C22.6505 5.62669 22.297 5.3373 21.857 5.3373L20.4217 5.33963C20.0763 5.33963 19.8639 5.61502 19.9421 5.9511C19.9421 5.9511 21.032 12.1533 21.2502 13.6131C21.3518 14.4183 21.2374 14.5618 21.2374 14.5618L19.8184 17.0334C19.6084 17.3695 19.7216 17.6437 20.0658 17.6437L21.7252 17.6414C22.0706 17.6414 22.5245 17.3695 22.7299 17.0322L29.113 6.23583C29.113 6.23699 29.7268 5.31396 29.1562 5.32679Z" fill="#858FA4"/>
</svg>
