<svg width="30" height="33" viewBox="0 0 30 33" fill="none" xmlns="http://www.w3.org/2000/svg">
<path d="M22.1463 16.0229L19.8046 18.1387L21.919 20.4789L24.2608 18.3632L22.1463 16.0229Z" fill="#858FA4"/>
<path d="M17.4805 17.9264L14.3575 20.7375L17.17 23.862L20.2929 21.0508L17.4805 17.9264Z" fill="#858FA4"/>
<path d="M26.3705 15.2784L24.8107 16.6843L26.2166 18.2442L27.7765 16.8383L26.3705 15.2784Z" fill="#858FA4"/>
<path d="M17.9847 6.37093L15.6406 8.48096L17.7506 10.825L20.0947 8.71498L17.9847 6.37093Z" fill="#858FA4"/>
<path d="M24.3731 10.6169L22.8164 12.0234L24.2242 13.5816L25.781 12.1751L24.3731 10.6169Z" fill="#858FA4"/>
<path d="M15.2647 12.5136L12.1388 15.3274L14.9513 18.4518L18.0772 15.638L15.2647 12.5136Z" fill="#858FA4"/>
<path d="M13.0307 7.18948L9.90625 10.002L12.7187 13.1264L15.8431 10.3139L13.0307 7.18948Z" fill="#858FA4"/>
<path d="M20.1369 11.0846L17.7987 13.1951L19.9132 15.5378L22.2515 13.4273L20.1369 11.0846Z" fill="#858FA4"/>
<path d="M22.3685 5.98345L20.8086 7.3894L22.2145 8.94929L23.7744 7.54333L22.3685 5.98345Z" fill="#858FA4"/>
<path d="M24.2102 20.7586L21.8671 22.8699L23.9797 25.2145L26.3228 23.1032L24.2102 20.7586Z" fill="#858FA4"/>
<path d="M20.1004 23.4144L17.0464 26.2304L11.8904 20.4924L13.3244 19.2304L9.71442 15.1884L11.1564 13.9244L7.49242 9.88641L13.2104 4.73841L15.0264 6.72641L18.0924 3.99041L19.9044 5.86841L21.1124 4.78641C20.8424 4.63041 20.5724 4.48641 20.2984 4.35641C18.5564 3.50441 16.6004 3.02441 14.5404 3.02441C7.30642 3.02441 1.40442 8.92441 1.40442 16.1604C1.40442 23.3944 7.30642 29.2944 14.5404 29.2944C16.8904 29.2944 19.1044 28.6724 21.0144 27.5824C21.6444 27.2264 22.2184 26.8404 22.7424 26.4344L20.1004 23.4144Z" fill="#858FA4"/>
</svg>
