<svg width="40" height="41" viewBox="0 0 40 41" fill="none" xmlns="http://www.w3.org/2000/svg">
<path d="M16.016 14.3184L13.9832 26.248H17.2344L19.2689 14.3184H16.016Z" fill="#858FA4"/>
<path d="M11.2571 14.3316L8.07279 22.4672L7.73328 21.2388C7.10528 19.7587 5.32244 17.633 3.22937 16.2934L6.14111 26.242L9.58134 26.2361L14.7015 14.3291L11.2571 14.3316Z" fill="#858FA4"/>
<path d="M6.49914 15.1855C6.31016 14.4588 5.76243 14.2422 5.08258 14.2163H0.0418113L0 14.4538C3.92273 15.4054 6.51838 17.6984 7.59543 20.4554L6.49914 15.1855Z" fill="#858FA4"/>
<path d="M25.8589 16.6052C26.9225 16.5885 27.6935 16.821 28.2923 17.0618L28.5858 17.1998L29.0257 14.6142C28.3818 14.3725 27.3724 14.1133 26.1131 14.1133C22.9003 14.1133 20.6358 15.7314 20.6182 18.0502C20.5973 19.7637 22.2313 20.7203 23.4656 21.2914C24.7325 21.8768 25.1573 22.2489 25.1514 22.7716C25.1414 23.5702 24.1413 23.9364 23.2072 23.9364C21.9052 23.9364 21.2136 23.7566 20.1458 23.3118L19.7268 23.1211L19.2694 25.7912C20.0304 26.1248 21.4344 26.4116 22.8919 26.4267C26.3096 26.4267 28.5306 24.8278 28.554 22.3501C28.5682 20.9946 27.7011 19.9602 25.8221 19.1114C24.6848 18.5578 23.9891 18.1899 23.9958 17.6313C23.9958 17.1354 24.5861 16.6052 25.8589 16.6052Z" fill="#858FA4"/>
<path d="M37.3689 14.3315H34.8568C34.0766 14.3315 33.4963 14.5439 33.1535 15.3216L28.3259 26.2544H31.7402C31.7402 26.2544 32.2972 24.7844 32.4234 24.4624C32.7972 24.4624 36.1145 24.4674 36.587 24.4674C36.684 24.8839 36.9834 26.2544 36.9834 26.2544H39.9996L37.3689 14.3315ZM33.3592 22.0206C33.6268 21.3358 34.6545 18.6866 34.6545 18.6866C34.6369 18.7192 34.9196 17.9967 35.0876 17.5477L35.3067 18.5762C35.3067 18.5762 35.9297 21.4244 36.0602 22.0206H33.3592Z" fill="#858FA4"/>
</svg>
