<svg width="24" height="25" viewBox="0 0 24 25" fill="none" xmlns="http://www.w3.org/2000/svg">
<g clip-path="url(#clip0_3_169)">
<path d="M14.0037 12.0618L11.1963 10.7518C10.9513 10.638 10.75 10.7655 10.75 11.0368V13.5043C10.75 13.7755 10.9513 13.903 11.1963 13.7893L14.0025 12.4793C14.2488 12.3643 14.2487 12.1768 14.0037 12.0618ZM12 0.270508C5.3725 0.270508 0 5.64301 0 12.2705C0 18.898 5.3725 24.2705 12 24.2705C18.6275 24.2705 24 18.898 24 12.2705C24 5.64301 18.6275 0.270508 12 0.270508ZM12 17.1455C5.8575 17.1455 5.75 16.5918 5.75 12.2705C5.75 7.94926 5.8575 7.39551 12 7.39551C18.1425 7.39551 18.25 7.94926 18.25 12.2705C18.25 16.5918 18.1425 17.1455 12 17.1455Z" fill="#909CB5"/>
</g>
<defs>
<clipPath id="clip0_3_169">
<rect width="24" height="24" fill="white" transform="translate(0 0.270508)"/>
</clipPath>
</defs>
</svg>
